<svg xmlns:xlink="http://www.w3.org/1999/xlink" xmlns="http://www.w3.org/2000/svg" viewBox="0 0 39.75 36" width="39" height="35"><g id="Layer_2" data-name="Layer 2"><g id="Layer_1-2" data-name="Layer 1"><g id="Layer_2-2" data-name="Layer 2"><g id="Layer_10" data-name="Layer 10"><path id="Rectangle_126" data-name="Rectangle 126" d="M.38,0h39V35H.38Z" fill="#FFFFFF"></path><g id="Group_190" data-name="Group 190"><path id="Path_10490" data-name="Path 10490" d="M38.54,15.8,36.82,14,35.11,15.8" fill="none" class="stroke-secondary" stroke-linecap="round" stroke-linejoin="round" stroke-width="0.75px" stroke="#FFBB00"></path><path id="Path_10491" data-name="Path 10491" d="M38.54,19.45l-1.72,1.82-1.71-1.82" fill="none" stroke="#4A4A4A" stroke-linecap="round" stroke-linejoin="round" stroke-width="0.75px"></path><g id="Path_10492" data-name="Path 10492"><path d="M31.84,32.35H6.43V5.17A1.45,1.45,0,0,1,8,3.89H30.28a1.45,1.45,0,0,1,1.56,1.28Z" class="fill-primary" fill="#008FFF"></path><path d="M31.46,32V5.17a1.08,1.08,0,0,0-1.18-.9H8a1.08,1.08,0,0,0-1.18.9V32H31.46m.75.75H6.06V5.17A1.8,1.8,0,0,1,8,3.52H30.28a1.8,1.8,0,0,1,1.93,1.65Z" fill="#4A4A4A"></path></g><g id="Group_189" data-name="Group 189"><path id="Rectangle_157" data-name="Rectangle 157" d="M8.65,5.71H19.24V32.42H8.65Z" fill="#FFFFFF" stroke="#4A4A4A" stroke-miterlimit="10" stroke-width="0.75px"></path><path id="Rectangle_158" data-name="Rectangle 158" d="M19.24,5.71H29.83V32.42H19.24Z" fill="#FFFFFF" stroke="#4A4A4A" stroke-miterlimit="10" stroke-width="0.75px"></path></g><path id="Line_40" data-name="Line 40" d="M.38,32.42h39" fill="none" stroke="#4A4A4A" stroke-linecap="round" stroke-linejoin="round" stroke-width="0.75px"></path><path id="Line_41" data-name="Line 41" d="M16.82,2h4.63" fill="none" stroke="#4A4A4A" stroke-linecap="round" stroke-linejoin="round" stroke-width="0.75px"></path></g></g></g></g></g></svg>