<?xml version="1.0" encoding="utf-8"?>
<!-- Generator: Adobe Illustrator 25.0.1, SVG Export Plug-In . SVG Version: 6.00 Build 0)  -->
<svg version="1.1" id="Layer_1" xmlns="http://www.w3.org/2000/svg" xmlns:xlink="http://www.w3.org/1999/xlink" x="0px" y="0px"
	 viewBox="0 0 72 72" style="enable-background:new 0 0 72 72;" xml:space="preserve">
<style type="text/css">
	.st0{fill:#4B4A4B;}
	.st1{fill-rule:evenodd;clip-rule:evenodd;fill:#4182C4;}
	.st2{fill-rule:evenodd;clip-rule:evenodd;fill:#FFFFFF;}
	.st3{fill-rule:evenodd;clip-rule:evenodd;fill:#FBBA10;}
</style>
<g id="Layer_2_2_">
	<g id="Layer_1-2_1_">
		<path class="st0" d="M69.12,24.06v37.27c-0.01,1.94-1.58,3.52-3.52,3.54H18.63c-1.95-0.01-3.53-1.59-3.54-3.54V24.06h1.68v37.27
			c-0.01,1.03,0.82,1.87,1.84,1.88c0.01,0,0.01,0,0.02,0h46.96c1.03-0.02,1.85-0.85,1.86-1.88V24.06H69.12z"/>
		<polygon class="st1" points="23.73,31.49 35.52,31.49 35.52,42.92 23.73,42.92 23.73,31.49 		"/>
		<path class="st0" d="M23.73,30.66h12.63v13.1H22.94v-13.1H23.73z M34.68,32.33H24.62v9.76h10.06V32.33z"/>
		<path class="st0" d="M37.28,48.48h9.68v16.25h-10.5V48.48H37.28z M45.2,50.16h-7.08v13.06h7.16V50.16H45.2z"/>
		<polygon class="st0" points="35.52,37.21 35.52,38.09 23.73,38.09 23.73,36.34 35.52,36.34 35.52,37.21 		"/>
		<polygon class="st0" points="29.62,43.42 28.75,43.42 28.75,31.63 30.49,31.63 30.49,43.42 29.62,43.42 		"/>
		<polygon class="st1" points="48.4,31.56 60.18,31.56 60.18,42.98 48.4,42.98 48.4,31.56 		"/>
		<path class="st0" d="M48.4,30.77h12.61v13.1H47.6v-13.1H48.4z M59.35,32.45H49.29v9.76h10.06V32.45z"/>
		<polygon class="st0" points="60.18,37.28 60.18,38.15 48.4,38.15 48.4,36.41 60.18,36.41 60.18,37.28 		"/>
		<polygon class="st0" points="54.27,43.49 53.4,43.49 53.4,31.7 55.14,31.7 55.14,43.49 54.27,43.49 		"/>
		<path class="st2" d="M2.65,67.94L2.65,67.94c-0.04-2.1,1.48-3.9,3.56-4.21l0,0c0-4.95,4.01-8.95,8.96-8.95
			c4.94,0,8.95,4.01,8.95,8.95c0,0.2,0,0.4,0,0.6c0.54-0.2,1.1-0.3,1.68-0.3c2.4-0.06,4.51,1.59,5.03,3.94L2.65,67.94z"/>
		<path class="st0" d="M1.81,67.94L1.81,67.94L1.81,67.94c0-1.19,0.43-2.35,1.21-3.25c0.62-0.73,1.45-1.26,2.36-1.54
			c0.27-5.39,4.85-9.55,10.25-9.29c5.09,0.25,9.13,4.36,9.29,9.45c0.29-0.02,0.58-0.02,0.87,0c2.68-0.01,5.05,1.78,5.77,4.36
			l0.23,1.02H1.83v-0.82L1.81,67.94z M4.28,65.67c-0.34,0.41-0.59,0.9-0.72,1.43h26c-0.73-1.4-2.18-2.27-3.76-2.26
			c-0.25-0.02-0.49-0.02-0.74,0l-0.7,0.18l-1.19,0.44V64.2c0-0.13,0-0.22,0-0.29v-0.27c0-4.48-3.63-8.12-8.12-8.12
			c-4.48,0-8.12,3.63-8.12,8.12c0,0,0,0,0,0l0,0v0.75l-0.7,0.1c-0.79,0.13-1.52,0.52-2.05,1.12L4.28,65.67z"/>
		<path class="st0" d="M13.08,17.25H72v7.14H12.38v-7.14H13.08z M70.57,18.68H13.8v4.28h56.77C70.57,22.96,70.57,18.68,70.57,18.68z
			"/>
		<polygon class="st0" points="56.34,18.09 55.5,17.83 59.79,3.94 61.47,4.46 57.16,18.35 56.34,18.09 		"/>
		<polygon class="st0" points="62.61,8.87 62.34,9.69 55.09,7.46 55.61,5.78 62.86,8.03 62.61,8.87 		"/>
		<polygon class="st0" points="62.83,12.68 62.57,13.5 55.31,11.27 55.83,9.59 63.08,11.84 62.83,12.68 		"/>
		<path class="st3" d="M6.37,5.08c3.07-0.01,5.56,2.47,5.57,5.53c0.01,3.07-2.47,5.56-5.53,5.57c-3.07,0.01-5.56-2.47-5.57-5.53
			C0.83,7.58,3.31,5.09,6.37,5.08C6.37,5.08,6.37,5.08,6.37,5.08z"/>
		<path class="st0" d="M6.37,4.26c1.69-0.01,3.31,0.66,4.49,1.86c2.48,2.49,2.48,6.52,0,9.01c-1.19,1.2-2.81,1.87-4.49,1.86
			C2.86,17,0.01,14.16,0,10.65c0,0,0,0,0,0c0-1.7,0.67-3.32,1.86-4.53C3.06,4.92,4.68,4.25,6.37,4.26z M9.69,7.29
			C7.87,5.44,4.88,5.42,3.03,7.25C3.01,7.26,3,7.28,2.99,7.29c-1.85,1.83-1.87,4.81-0.04,6.66c0.01,0.01,0.03,0.03,0.04,0.04
			c1.85,1.85,4.86,1.85,6.71,0S11.55,9.15,9.69,7.29z"/>
	</g>
</g>
</svg>
