<svg xmlns:xlink="http://www.w3.org/1999/xlink" xmlns="http://www.w3.org/2000/svg" data-name="Layer 1" width="34" height="34"><g data-name="commercial building fire"><path fill="#FFFFFF" d="M16.41 32.62V4.31l11.21 3.62a.64.64 0 01.44.6v24.09z"></path><path fill="#4A4A4A" d="M16.78 4.83l10.73 3.46a.25.25 0 01.17.24v23.72h-10.9V4.83M16 3.8V33h12.4V8.53a1 1 0 00-.69-.95z"></path><path fill="#FFFFFF" d="M2 32.62a.61.61 0 01-.62-.6V2A.61.61 0 012 1.38h14.62a.62.62 0 01.62.62v30.62z"></path><path fill="#4A4A4A" d="M16.62 1.75a.25.25 0 01.25.25v30.25H2a.25.25 0 01-.25-.25V2A.25.25 0 012 1.75h14.62m0-.75H2a1 1 0 00-1 1v30a1 1 0 001 1h15.62V2a1 1 0 00-1-1z"></path><path fill="none" stroke="#4A4A4A" stroke-linecap="round" stroke-linejoin="round" stroke-width="0.75px" d="M4.91 7.2L13.65 7.2"></path><path fill="none" stroke="#4A4A4A" stroke-linecap="round" stroke-linejoin="round" stroke-width="0.75px" d="M4.91 10.2L13.65 10.2"></path><path fill="#FFFFFF" d="M13 32.62v-9h17.22V32a.62.62 0 01-.62.62z"></path><path fill="#4A4A4A" d="M29.85 24v8a.25.25 0 01-.25.25H13.35V24h16.5m.75-.75h-18V33h17a1 1 0 001-1v-8.75z"></path><path fill="#FFFFFF" d="M12.13 23.51A1.57 1.57 0 0110.57 22v-3.11a.62.62 0 01.09-.32l2.25-3.7a.63.63 0 01.54-.3h16.3a.6.6 0 01.53.3l2.25 3.7a.62.62 0 01.09.32V22a1.56 1.56 0 01-1.56 1.56z"></path><path fill="#4A4A4A" d="M29.75 15a.21.21 0 01.21.12l2.25 3.69a.29.29 0 010 .13V22A1.19 1.19 0 0131 23.19H12.13A1.19 1.19 0 0111 22v-3.11a.29.29 0 010-.13l2.25-3.69a.25.25 0 01.22-.12h16.3m0-.75H13.45a1 1 0 00-.86.48l-2.25 3.69a1.07 1.07 0 00-.14.52V22a1.92 1.92 0 001.92 1.94h18.94A1.94 1.94 0 0033 22v-3.11a1 1 0 00-.15-.52l-2.25-3.69a1 1 0 00-.85-.48z"></path><path fill="#008FFF" d="M10.91 23.51a.34.34 0 01-.34-.34v-3.56a.63.63 0 01.63-.61H32a.64.64 0 01.62.63v3.56a.35.35 0 01-.33.34z"></path><path fill="#4A4A4A" d="M32 19.36a.25.25 0 01.25.25v3.53H11v-3.53a.25.25 0 01.25-.25H32m0-.75H11.2a1 1 0 00-1 1v3.56a.71.71 0 00.7.72h21.39a.71.71 0 00.71-.71v-3.57a1 1 0 00-1-1z"></path><path fill="#008FFF" d="M17.39 18.98H25.8V23.51H17.39z"></path><path fill="#4A4A4A" d="M25.43 19.36v3.78h-7.66v-3.78h7.66m.75-.75H17v5.28h9.16v-5.28z"></path></g></svg>