<svg width="485" height="106" viewBox="0 0 485 106" fill="none" xmlns="http://www.w3.org/2000/svg">
<g clip-path="url(#clip0_1_2599)">
<path d="M250.696 27.5228H251.746V91.3402C251.736 95.2243 250.199 98.9461 247.468 101.693C244.737 104.44 241.035 105.989 237.172 106H235.416V42.8606C235.424 38.7916 237.036 34.892 239.9 32.0167C242.764 29.1414 246.648 27.5256 250.696 27.5228Z" fill="#00B4FF"/>
<path d="M168.531 0H169.587V60.3826L197.855 31.9165C199.274 30.4877 200.96 29.3569 202.818 28.5897C204.676 27.8225 206.668 27.4345 208.677 27.4478C210.685 27.4611 212.667 27.8756 214.515 28.6674C216.362 29.4591 218.036 30.612 219.436 32.0594L220.188 32.839L188.033 65.2168C187.538 65.7132 187.011 66.1731 186.452 66.5942C187.19 67.1122 187.878 67.6964 188.511 68.3384L220.178 100.223L218.958 101.495C217.62 102.878 216.022 103.98 214.257 104.736C212.493 105.493 210.595 105.889 208.677 105.902C206.758 105.915 204.855 105.545 203.081 104.812C201.306 104.078 199.695 102.998 198.339 101.633L169.581 72.6738V91.1332C169.591 95.0453 168.066 98.8035 165.334 101.59C162.602 104.376 158.888 105.964 154.997 106.01H153.257V15.5765C153.235 11.4764 154.831 7.53504 157.694 4.6155C160.558 1.69596 164.453 0.0364035 168.531 0Z" fill="#00B4FF"/>
<path d="M0.000223955 89.9673V88.8752L0.185559 76.6112C0.117238 75.05 0.202864 73.486 0.442968 71.942V71.1048H0.628302C1.43083 67.902 3.25562 65.0535 5.82797 62.9989C8.40031 60.9444 11.5783 59.7979 14.863 59.7362H48.8822C49.6335 59.4659 50.2942 58.9848 50.7819 58.3498C51.2696 57.7148 51.5663 56.9524 51.6365 56.1533V46.5018C51.5347 45.9283 51.2632 45.3989 50.8591 44.9814C50.4551 44.5638 49.9387 44.2771 49.3713 44.1591H15.2491C13.2391 44.1425 11.2555 43.7269 9.40595 42.9357C7.55637 42.1444 5.87957 40.9934 4.474 39.5488C3.06842 38.1041 1.96125 36.3944 1.2152 34.5179C0.469144 32.6414 0.0959205 30.6349 0.12378 28.6143V27.5228H54.0304C56.0673 27.6899 58.0497 28.2637 59.8633 29.2108C61.6769 30.1579 63.2872 31.459 64.5945 33.0383C65.9018 34.6176 66.8805 36.4431 67.4775 38.4081C68.0744 40.3732 68.2761 42.4384 68.0695 44.4826V105.469H66.3243C64.3318 105.464 62.3612 105.045 60.5377 104.238C58.7142 103.431 57.0784 102.254 55.7293 100.78C54.3058 102.428 52.5401 103.747 50.5605 104.645C48.581 105.542 46.4307 105.997 44.2592 105.979L15.1565 105.698C11.7794 105.63 8.51456 104.453 5.864 102.348C3.21345 100.243 1.32165 97.3246 0.473857 94.0374H0.40693V93.7677C0.104661 92.524 -0.0439858 91.2475 -0.0358133 89.9673H0.000223955ZM51.6622 70.8396C50.2751 72.5217 48.5344 73.8742 46.5655 74.7997C44.5967 75.7252 42.4479 76.201 40.2745 76.1926L19.9752 76.1396C19.6036 76.1136 19.2289 76.1662 18.8786 76.2936C18.5283 76.421 18.2107 76.6201 17.9416 76.8791C17.6726 77.1381 17.4605 77.4508 17.3187 77.7971C17.1769 78.1434 17.1082 78.5162 17.1179 78.8905L17.0613 87.1899C17.0613 89.8399 18.9984 89.5326 20.2583 89.5326H49.0779C49.7551 89.5178 50.4049 89.2413 50.8849 88.7607C51.3649 88.2801 51.6396 87.6326 51.6571 86.9518L51.6622 70.8396Z" fill="#00B4FF"/>
<path d="M243.412 20.5374C248.763 20.5374 253.101 16.176 253.101 10.796C253.101 5.41594 248.763 1.05457 243.412 1.05457C238.06 1.05457 233.722 5.41594 233.722 10.796C233.722 16.176 238.06 20.5374 243.412 20.5374Z" fill="#00B4FF"/>
<path d="M86.6706 85.0912L118.538 44.0958H94.0119C89.9835 44.0302 86.1456 42.3651 83.3345 39.4634C80.5235 36.5618 78.9692 32.6595 79.0101 28.6092V27.5494H133.097C146.123 27.5494 147.33 35.7327 139.949 45.2144L105.59 89.3845L130.291 89.2836C134.205 89.3646 137.935 90.9739 140.69 93.7703C143.445 96.5668 145.008 100.331 145.051 104.267V106.021H91.6746C84.8477 106.021 81.7707 104.092 80.4001 101.696C77.6482 96.8575 81.8522 91.2763 86.6706 85.0912Z" fill="#00B4FF"/>
<path d="M339.713 52.8939H302.6C299.784 52.8939 297.08 54.0183 295.089 56.0201C293.097 58.0219 291.979 60.7373 291.979 63.5683V95.3308C291.98 98.1609 293.103 100.874 295.094 102.875C297.085 104.876 299.785 106 302.6 106H339.713C339.714 104.793 339.477 103.597 339.018 102.481C338.559 101.366 337.885 100.352 337.036 99.498C336.187 98.644 335.18 97.9668 334.071 97.5046C332.961 97.0424 331.771 96.8046 330.57 96.8046H306.641C305.318 96.8046 304.05 96.2762 303.115 95.336C302.179 94.3957 301.652 93.1203 301.652 91.7906V67.5698C301.652 66.9117 301.783 66.2596 302.033 65.6516C302.284 65.0436 302.651 64.4915 303.115 64.0264C303.578 63.5612 304.126 63.1921 304.731 62.9408C305.336 62.6894 305.986 62.5603 306.641 62.561H330.57C331.771 62.561 332.961 62.3231 334.071 61.861C335.18 61.3988 336.187 60.7216 337.036 59.8676C337.885 59.0137 338.559 58.0001 339.018 56.8844C339.477 55.7688 339.714 54.5729 339.713 53.3656V52.8939Z" fill="#00B4FF"/>
<path d="M388.291 62.9162C389.183 62.9162 390.038 63.2713 390.67 63.9041C391.301 64.5369 391.661 65.3957 391.663 66.2921V92.5909C391.661 93.4872 391.301 94.346 390.67 94.9788C390.038 95.6117 389.183 95.9668 388.291 95.9668H360.589C359.697 95.9668 358.842 95.6117 358.21 94.9788C357.579 94.346 357.225 93.4872 357.222 92.5909V66.2921C357.225 65.3957 357.579 64.5369 358.21 63.9041C358.842 63.2713 359.697 62.9162 360.589 62.9162H388.291ZM388.291 52.8939H360.589C357.053 52.8939 353.663 54.3061 351.163 56.8198C348.662 59.3334 347.26 62.743 347.26 66.2979V92.596C347.26 96.1509 348.662 99.5605 351.163 102.074C353.663 104.588 357.053 106 360.589 106H388.291C391.828 106 395.222 104.588 397.723 102.074C400.224 99.5607 401.629 96.1514 401.63 92.596V66.2979C401.629 62.7425 400.224 59.3326 397.723 56.8191C395.222 54.3056 391.828 52.8939 388.291 52.8939Z" fill="#00B4FF"/>
<path d="M414.017 66.043V105.995H415.561C417.956 105.995 420.256 105.038 421.95 103.335C423.643 101.633 424.591 99.3238 424.591 96.9159V66.8485C424.59 66.2852 424.701 65.7276 424.915 65.2071C425.129 64.6866 425.446 64.2138 425.842 63.8155C426.238 63.4172 426.709 63.101 427.227 62.8858C427.745 62.6705 428.299 62.5603 428.859 62.561H440.859C441.42 62.5603 441.978 62.6707 442.496 62.8858C443.015 63.1009 443.484 63.4167 443.881 63.8148C444.278 64.213 444.593 64.6859 444.808 65.2065C445.023 65.727 445.137 66.2847 445.137 66.8485V96.9159C445.137 98.1083 445.368 99.289 445.822 100.391C446.276 101.493 446.94 102.494 447.778 103.337C448.617 104.18 449.617 104.849 450.713 105.305C451.809 105.761 452.981 105.996 454.167 105.995H456.309V66.6207C456.31 66.057 456.418 65.4993 456.633 64.9787C456.848 64.4581 457.163 63.9852 457.56 63.5871C457.957 63.1889 458.432 62.8731 458.95 62.658C459.468 62.4429 460.021 62.3326 460.582 62.3333H471.074C471.634 62.3326 472.188 62.4428 472.706 62.658C473.224 62.8733 473.695 63.1894 474.091 63.5877C474.487 63.986 474.803 64.4589 475.017 64.9794C475.232 65.4999 475.337 66.0575 475.337 66.6207V96.9159C475.337 99.3238 476.289 101.633 477.983 103.335C479.676 105.038 481.977 105.995 484.372 105.995H485.005V66.043C485.006 64.3165 484.668 62.6068 484.011 61.0115C483.355 59.4162 482.394 57.9664 481.18 56.7454C479.966 55.5243 478.524 54.5557 476.938 53.8948C475.351 53.2339 473.651 52.8939 471.934 52.8939H456.376C455.168 52.8923 454 53.3332 453.091 54.1342L451.176 55.8092L449.277 54.1342C448.367 53.3349 447.2 52.8942 445.992 52.8939H427.108C425.39 52.8925 423.687 53.2314 422.099 53.8916C420.511 54.5517 419.068 55.5203 417.852 56.7415C416.636 57.9626 415.673 59.4129 415.015 61.0089C414.357 62.6049 414.017 64.3153 414.017 66.043Z" fill="#00B4FF"/>
<path d="M272.469 105.921C276.391 105.921 279.57 102.724 279.57 98.7814C279.57 94.8386 276.391 91.6423 272.469 91.6423C268.547 91.6423 265.368 94.8386 265.368 98.7814C265.368 102.724 268.547 105.921 272.469 105.921Z" fill="#00B4FF"/>
</g>
<defs>
<clipPath id="clip0_1_2599">
<rect width="485" height="106" fill="white"/>
</clipPath>
</defs>
</svg>
