<?xml version="1.0" encoding="utf-8"?>
<!-- Generator: Adobe Illustrator 25.0.1, SVG Export Plug-In . SVG Version: 6.00 Build 0)  -->
<svg version="1.1" id="Layer_1" xmlns="http://www.w3.org/2000/svg" xmlns:xlink="http://www.w3.org/1999/xlink" x="0px" y="0px"
	 viewBox="0 0 72 72" style="enable-background:new 0 0 72 72;" xml:space="preserve">
<style type="text/css">
	.st0{fill:#4B4A4B;}
	.st1{fill-rule:evenodd;clip-rule:evenodd;fill:#4182C4;}
	.st2{fill:#4182C4;}
	.st3{fill-rule:evenodd;clip-rule:evenodd;fill:#FBBA10;}
</style>
<g id="Layer_2_1_">
	<g id="Layer_1-2">
		<path class="st0" d="M14.65,65.78h-0.31c-2.78-0.05-5.02-2.29-5.07-5.07v-5.15h10.44v5.15c-0.05,2.81-2.34,5.07-5.15,5.07H14.65z
			 M14.34,64.06h0.31c1.84-0.01,3.32-1.5,3.33-3.33v-3.44h-6.99v3.44C11.05,62.55,12.52,64.02,14.34,64.06z"/>
		<path class="st0" d="M58.26,65.74h-0.31c-2.85,0-5.15-2.31-5.15-5.15v-5.15h10.44v5.15c0,2.81-2.25,5.11-5.07,5.15H58.26z
			 M57.95,64.03h0.31c0.88,0,1.73-0.35,2.35-0.98c0.62-0.63,0.97-1.48,0.98-2.37v-3.44h-6.97v3.44c0.01,0.89,0.36,1.74,0.98,2.37
			C56.22,63.67,57.07,64.02,57.95,64.03z"/>
		<path class="st0" d="M17.95,7.6h34.92c1.3-0.02,2.54,0.5,3.44,1.44c1.02,1.08,1.74,2.41,2.1,3.85l4.02,14.41l8.88,8.35
			c0.17,0.16,0.26,0.39,0.26,0.62l0,0v13.74c-0.03,3.98-3.25,7.2-7.23,7.21H7.64c-3.98-0.02-7.19-3.24-7.21-7.21V36.27
			c0-0.26,0.12-0.5,0.31-0.67l8.59-8.26l3.13-14.39c0.28-1.45,0.95-2.79,1.96-3.86C15.34,8.13,16.62,7.59,17.95,7.6z M52.87,9.32
			H17.95c-0.87-0.01-1.71,0.34-2.32,0.96c-0.77,0.84-1.29,1.88-1.49,3.01l-3.19,14.67l0,0c-0.03,0.17-0.12,0.32-0.24,0.45l-8.5,8.23
			V50.1c0.02,3.02,2.47,5.47,5.5,5.48h56.68c3.02-0.01,5.48-2.45,5.5-5.48V36.65l-8.85-8.26c-0.11-0.11-0.19-0.25-0.24-0.4
			l-4.1-14.63c-0.27-1.15-0.83-2.21-1.61-3.09C54.49,9.67,53.7,9.33,52.87,9.32z"/>
		<path class="st1" d="M21.25,13.44h29.06c1.55,0,2.46,1.29,2.8,2.8l2.78,11.73l-39.93-0.19l2.49-11.59c0.33-1.51,1.27-2.8,2.8-2.8
			V13.44z"/>
		<path class="st2" d="M21.25,12.57h29.06c0.89-0.01,1.73,0.35,2.35,0.98c0.65,0.7,1.1,1.56,1.29,2.49l3.04,12.8l-42.11-0.19
			l2.73-12.59c0.18-0.94,0.63-1.8,1.29-2.49c0.62-0.64,1.48-1,2.37-1H21.25z M50.31,14.29H21.25c-0.43,0.01-0.84,0.18-1.15,0.48
			c-0.43,0.49-0.7,1.08-0.81,1.72l-2.27,10.44l37.79,0.17l-2.54-10.67c-0.11-0.64-0.39-1.23-0.82-1.72
			c-0.3-0.31-0.71-0.48-1.13-0.48V14.29z"/>
		<path class="st2" d="M57.02,28.85L57.02,28.85l-42.17-0.19l0,0l2.73-12.57c0.18-0.96,0.63-1.84,1.31-2.54
			c0.62-0.65,1.49-1.01,2.39-1h29.03c0.89-0.01,1.75,0.34,2.37,0.98c0.65,0.71,1.1,1.57,1.31,2.51L57.02,28.85z M14.91,28.61
			l42.05,0.21l-3.02-12.78c-0.19-0.93-0.64-1.78-1.29-2.47c-0.62-0.62-1.46-0.97-2.34-0.96H21.25c-0.89-0.01-1.74,0.34-2.35,0.98
			c-0.65,0.69-1.09,1.55-1.27,2.47L14.91,28.61z M54.82,27.13L54.82,27.13l-37.79-0.19l0,0l2.28-10.51c0.1-0.64,0.38-1.24,0.81-1.72
			c0.3-0.32,0.73-0.5,1.17-0.5h29.01c0.44,0,0.85,0.18,1.15,0.5c0.44,0.48,0.73,1.08,0.84,1.72L54.82,27.13z M17.04,26.89
			l37.79,0.19l-2.58-10.63c-0.1-0.64-0.39-1.24-0.82-1.72c-0.29-0.31-0.69-0.48-1.12-0.48H21.25c-0.43,0-0.83,0.18-1.13,0.48
			c-0.4,0.46-0.68,1.03-0.79,1.63L17.04,26.89z"/>
		<path class="st0" d="M23.5,37.46h25.35c0.97,0,1.9,0.39,2.58,1.08c0.69,0.68,1.08,1.62,1.08,2.59v7.56
			c-0.02,2.01-1.65,3.64-3.66,3.66H23.5c-0.97,0-1.91-0.39-2.59-1.08c-0.69-0.68-1.08-1.61-1.08-2.58v-7.56
			C19.83,39.11,21.47,37.47,23.5,37.46z M48.85,39.17H23.5c-1.07,0-1.94,0.87-1.94,1.94v7.56c0.04,1.04,0.9,1.87,1.94,1.87h25.35
			c1.06-0.01,1.91-0.87,1.92-1.92v-7.56c0-1.07-0.86-1.93-1.92-1.94V39.17z"/>
		<path class="st3" d="M8.86,37.04h3.02c2.32,0,4.21,1.88,4.21,4.21l0,0v1.17H7.51v-3.9c0-0.77,0.62-1.4,1.39-1.41L8.86,37.04z"/>
		<path class="st0" d="M8.86,36.18h3.02c2.78,0.05,5.02,2.29,5.07,5.07v2.04H6.65v-4.77c-0.01-1.24,0.99-2.26,2.23-2.27
			c0.01,0,0.01,0,0.02,0L8.86,36.18z M11.89,37.9H8.86c-0.14,0-0.28,0.05-0.38,0.15c-0.1,0.1-0.15,0.24-0.15,0.38v3.11h6.87v-0.31
			c-0.01-1.84-1.5-3.32-3.33-3.33L11.89,37.9z"/>
		<path class="st3" d="M7.37,46.92h7.54c1.17,0,2.11,0.95,2.11,2.11v2.25H7.37V46.92z"/>
		<path class="st0" d="M7.37,46.06h7.54c1.64,0.01,2.96,1.33,2.97,2.97v3.11H6.51v-6.08H7.37z M14.91,47.78H8.24v2.63h7.9v-1.39
			C16.15,48.33,15.59,47.78,14.91,47.78z"/>
		<path class="st3" d="M63.4,37.23h-3.01c-2.32,0-4.21,1.88-4.21,4.21v0v1.17h8.59v-3.97c0-0.78-0.63-1.41-1.41-1.41H63.4z"/>
		<path class="st0" d="M63.4,38.09h-3.01c-1.83,0.05-3.3,1.52-3.35,3.35v0.31h6.87v-3.11c-0.02-0.3-0.25-0.53-0.55-0.55H63.4z
			 M60.39,36.37h3.01c1.23-0.02,2.25,0.96,2.27,2.2c0,0.02,0,0.05,0,0.07v4.83H55.36v-2.03C55.35,38.65,57.6,36.38,60.39,36.37
			c0.01,0,0.02,0,0.03,0H60.39z"/>
		<path class="st3" d="M64.89,47.11h-7.52c-1.17,0-2.11,0.95-2.11,2.11v2.25h9.64C64.89,51.47,64.89,47.11,64.89,47.11z"/>
		<path class="st0" d="M64.03,47.97h-6.66c-0.33,0.01-0.65,0.14-0.88,0.38c-0.23,0.23-0.36,0.55-0.36,0.88v1.32h7.9
			C64.03,50.54,64.03,47.97,64.03,47.97z M57.37,46.25h8.4v6.01H54.4v-3.04c-0.02-1.62,1.28-2.95,2.9-2.97
			C57.32,46.25,57.34,46.25,57.37,46.25z"/>
		<path class="st0" d="M63.55,21.48h4.29c2.09,0.01,3.79,1.7,3.8,3.8c-0.02,1.82-1.49,3.3-3.31,3.31h-7.04v-4.84
			C61.29,22.5,62.3,21.49,63.55,21.48z M67.84,23.2h-4.29c-0.14,0-0.28,0.05-0.38,0.15c-0.09,0.1-0.15,0.24-0.15,0.38v3.11h5.31
			c0.42,0.01,0.82-0.16,1.12-0.46c0.3-0.29,0.47-0.7,0.46-1.12C69.9,24.12,68.98,23.2,67.84,23.2C67.84,23.2,67.84,23.2,67.84,23.2z
			"/>
		<path class="st0" d="M8.07,23.06H3.8c-1.14-0.01-2.07,0.91-2.08,2.04c0,0.01,0,0.02,0,0.03c0,0.42,0.17,0.82,0.46,1.12
			c0.29,0.3,0.7,0.47,1.12,0.46h5.29v-3.11c0-0.14-0.06-0.28-0.17-0.38C8.33,23.13,8.21,23.07,8.07,23.06z M3.8,21.34h4.28
			c0.61,0,1.19,0.24,1.61,0.67c0.41,0.43,0.63,1,0.62,1.6v4.84H3.31c-1.82-0.02-3.3-1.49-3.31-3.31C0.01,23.05,1.7,21.35,3.8,21.34z
			"/>
		<polygon class="st0" points="35.85,51.26 35,51.26 35,39.19 36.67,39.19 36.67,51.26 35.85,51.26 		"/>
		<polygon class="st0" points="40.77,51.52 39.95,51.52 39.95,38.97 41.62,38.97 41.62,51.52 40.77,51.52 		"/>
		<polygon class="st0" points="26.21,51.18 25.37,51.18 25.37,39.1 27.03,39.1 27.03,51.18 26.21,51.18 		"/>
		<polygon class="st0" points="31.14,51.44 30.32,51.44 30.32,38.88 31.98,38.88 31.98,51.44 31.14,51.44 		"/>
		<polygon class="st0" points="45.69,51.08 44.86,51.08 44.86,39 46.53,39 46.53,51.08 45.69,51.08 		"/>
	</g>
</g>
</svg>
