<?xml version="1.0" encoding="utf-8"?>
<!-- Generator: Adobe Illustrator 25.0.1, SVG Export Plug-In . SVG Version: 6.00 Build 0)  -->
<svg version="1.1" id="Layer_1" xmlns="http://www.w3.org/2000/svg" xmlns:xlink="http://www.w3.org/1999/xlink" x="0px" y="0px"
	 viewBox="0 0 72 72" style="enable-background:new 0 0 72 72;" xml:space="preserve">
<style type="text/css">
	.st0{fill:#FFFFFF;}
	.st1{fill:#4B4A4B;}
	.st2{fill:#FBBA10;}
	.st3{fill:#4182C4;}
</style>
<g id="Layer_2_1_">
	<g id="Layer_1-2">
		<path class="st0" d="M22.94,0.81c2.76,0,5.04,1.46,5.04,3.09c0,0.16,0,0.33,0,0.49c6.18,0.49,11.38,1.95,11.38,4.06v28.93
			c0,7.96-6.34,14.3-14.3,14.3h-4.39c-7.96,0-14.3-6.34-14.3-14.3V8.45c0-2.44,5.2-3.74,11.7-4.06c0-0.16,0-0.16,0-0.33
			C17.9,2.11,20.18,0.81,22.94,0.81z"/>
		<path class="st1" d="M25.06,52.33h-4.39c-8.29,0-15.12-6.66-15.12-14.95V8.45c0-3.41,6.99-4.55,11.54-4.88
			C17.42,1.46,19.85,0,22.94,0s5.53,1.63,5.85,3.74c4.55,0.49,11.38,1.63,11.38,4.71v28.93C40.01,45.67,33.34,52.33,25.06,52.33z
			 M22.94,1.46c-2.28,0-4.23,1.14-4.23,2.44v0.16v0.81H17.9C10.43,5.36,7.02,6.99,7.02,8.45v28.93c0,7.48,6.01,13.49,13.49,13.49
			h4.55c7.48,0,13.49-6.18,13.49-13.49V8.45c0-0.98-2.93-2.6-10.73-3.25h-0.81l0.16-0.81c0-0.16,0-0.16,0-0.33
			C27.17,2.6,25.22,1.46,22.94,1.46z"/>
		<polygon class="st1" points="22.78,23.89 22.78,24.7 16.12,24.7 16.12,23.08 22.78,23.08 		"/>
		<polygon class="st1" points="22.78,35.11 22.78,35.92 16.12,35.92 16.12,34.46 22.78,34.46 		"/>
		<polygon class="st1" points="19.37,29.26 19.37,30.07 15.95,30.07 15.95,28.44 19.37,28.44 		"/>
		<polygon class="st1" points="19.37,39.98 19.37,40.79 15.95,40.79 15.95,39.17 19.37,39.17 		"/>
		<polygon class="st1" points="19.53,18.04 19.53,18.85 16.12,18.85 16.12,17.39 19.53,17.39 		"/>
		<path class="st2" d="M20.51,51.85h4.55c0.81,0,1.46,0.65,1.46,1.46l0,0c0,0.81-0.65,1.46-1.46,1.46h-4.55
			c-0.81,0-1.46-0.65-1.46-1.46l0,0C19.04,52.5,19.69,51.85,20.51,51.85L20.51,51.85z"/>
		<path class="st1" d="M25.22,55.42h-4.71c-1.14-0.16-2.11-1.14-1.95-2.44c0-0.98,0.98-1.79,1.95-1.95h4.55
			c1.14,0.16,2.11,1.14,1.95,2.44C27.01,54.45,26.19,55.26,25.22,55.42z M20.51,52.5c-0.33,0-0.65,0.33-0.65,0.65
			s0.33,0.65,0.65,0.65h4.55c0.33,0,0.65-0.33,0.65-0.65s-0.33-0.65-0.65-0.65H20.51z"/>
		<path class="st0" d="M21.32,58.02v-3.41h2.76v3.41c0,0.81-0.65,1.46-1.46,1.46l0,0C21.97,59.49,21.32,58.84,21.32,58.02z"/>
		<path class="st1" d="M22.78,60.3c-1.14,0-2.11-0.98-2.11-2.11v-4.06h4.39v4.06C24.89,59.32,23.92,60.3,22.78,60.3L22.78,60.3z
			 M22.13,55.42v2.6c0,0.33,0.16,0.65,0.49,0.81c0.33,0,0.65-0.16,0.81-0.49v-0.16v-2.6h-1.3V55.42z"/>
		<path class="st3" d="M7.02,24.22c0,0,5.69,7.96,13.65,8.45c3.9,0.16,11.86-4.23,17.88-0.98c0.16,4.39,0.49,8.13-1.46,12.03
			c-1.3,2.44-3.25,4.55-5.69,5.85c-6.83,3.58-18.2,2.28-22.27-5.2c-1.46-2.44-2.28-5.36-2.11-8.29C7.02,36.08,7.02,24.22,7.02,24.22
			z"/>
		<path class="st3" d="M22.78,51.36c-1.3,0-2.6-0.16-3.74-0.33c-4.23-0.65-7.96-3.09-10.08-6.66c-1.46-2.44-2.11-5.36-1.95-8.29
			v-11.7h0.16c0,0.16,5.85,7.96,13.65,8.45c1.79,0,3.41-0.33,5.04-0.81c3.9-0.98,8.78-2.28,12.84-0.16l0,0l0,0c0,0.33,0,0.65,0,0.98
			c0.16,4.06,0.33,7.48-1.63,11.05c-1.3,2.44-3.25,4.55-5.69,5.85C28.63,50.71,25.71,51.36,22.78,51.36z M7.02,24.38v11.54
			c-0.16,2.93,0.49,5.69,1.95,8.29c2.11,3.58,5.85,6.01,10.08,6.66c4.06,0.81,8.45,0.33,12.19-1.46c2.44-1.3,4.39-3.25,5.69-5.85
			c1.79-3.58,1.79-7.15,1.63-11.05c0-0.33,0-0.65,0-0.98c-3.9-2.11-8.78-0.81-12.68,0.16c-1.63,0.49-3.41,0.81-5.04,0.98
			C13.35,32.34,7.83,25.52,7.02,24.38z"/>
		<polygon class="st1" points="15.47,51.03 14.65,51.03 14.65,13.98 16.28,13.98 16.28,51.03 		"/>
		<path class="st1" d="M43.26,44.37v-8.94c0-6.34,5.04-11.38,11.38-11.38s11.38,5.04,11.38,11.38v10.08c0,0.16,0,0.33-0.16,0.49
			c-0.16,0.16-0.33,0.16-0.49,0.16c-0.16,0-0.33,0-0.49-0.16c-0.16-0.16-0.16-0.33-0.16-0.49V35.43c-0.16-5.53-4.88-9.75-10.4-9.59
			c-5.2,0.16-9.26,4.39-9.59,9.59v8.45l0,0v16.74c0,6.34-5.04,11.38-11.38,11.38s-11.38-5.04-11.38-11.38v-0.81h1.46v0.81
			c-0.16,5.53,4.06,10.08,9.59,10.4c5.53,0.16,10.08-4.06,10.4-9.59c0-0.33,0-0.49,0-0.81L43.26,44.37L43.26,44.37z"/>
		<path class="st2" d="M64.55,39.98h1.79c0.81,0,1.46,0.65,1.46,1.46l0,0c0,0.81-0.65,1.46-1.46,1.46h-1.79
			c-0.81,0-1.46-0.65-1.46-1.46l0,0C63.09,40.63,63.74,39.98,64.55,39.98z"/>
		<path class="st1" d="M66.34,43.56h-1.79c-1.14-0.16-2.11-1.14-1.95-2.44c0.16-0.98,0.98-1.95,1.95-1.95h1.79
			c1.14,0.16,2.11,1.14,1.95,2.44C68.13,42.74,67.31,43.56,66.34,43.56z M64.55,40.79c-0.33,0-0.65,0.16-0.81,0.49
			c0,0.33,0.16,0.65,0.49,0.81h0.16h1.79c0.33,0,0.65-0.33,0.49-0.81c0-0.33-0.33-0.49-0.49-0.49H64.55z"/>
		<polygon class="st1" points="22.78,34.78 22.78,35.43 16.12,35.43 16.12,33.97 22.78,33.97 		"/>
		<polygon class="st1" points="19.37,39.98 19.37,40.79 15.95,40.79 15.95,39.17 19.37,39.17 		"/>
	</g>
</g>
</svg>
