<svg xmlns:xlink="http://www.w3.org/1999/xlink" xmlns="http://www.w3.org/2000/svg" viewBox="0 0 39 35.85" width="39" height="35.85"><g id="Layer_2" data-name="Layer 2"><g id="Layer_1-2" data-name="Layer 1"><g id="Layer_2-2" data-name="Layer 2"><g id="Layer_10" data-name="Layer 10"><path id="Rectangle_126" data-name="Rectangle 126" d="M0,0H39V35H0Z" fill="#FFFFFF"></path><g id="Group_188" data-name="Group 188"><path id="Rectangle_142" data-name="Rectangle 142" d="M13.25,31h18v4.49h-18Z" fill="#FFFFFF" stroke="#707070" stroke-width="0.75px"></path><circle id="Ellipse_38" data-name="Ellipse 38" cx="19.62" cy="7.37" r="6.37" fill="#FFFFFF" stroke="#4A4A4A" stroke-miterlimit="10" stroke-width="0.75px"></circle><path id="Path_10483" data-name="Path 10483" d="M8.75,16.74l3.06-2.11,3.68-.14L23.74,31H15.49Z" class="fill-primary" fill="#008FFF"></path><path id="Path_10484" data-name="Path 10484" d="M23,31l-3.27-6L14,14.49h2.25a7.83,7.83,0,0,0,6.69,0h2.86a5.4,5.4,0,0,1,5.4,5.4V35.47" fill="#FFFFFF" stroke="#4A4A4A" stroke-linecap="round" stroke-linejoin="round" stroke-width="0.75px"></path><path id="Path_10485" data-name="Path 10485" d="M23,31H17.74l-3.3-6L9.56,16.09a5.39,5.39,0,0,1,3.84-1.6H14L19.72,25Z" fill="none" stroke="#4A4A4A" stroke-miterlimit="10" stroke-width="0.75px"></path><path id="Path_10486" data-name="Path 10486" d="M14.44,25l3.3,6H10.53A2.53,2.53,0,0,1,8,28.45H8V19.89a5.41,5.41,0,0,1,1.56-3.8Z" fill="#FFFFFF" stroke="#4A4A4A" stroke-miterlimit="10" stroke-width="0.75px"></path><path id="Line_34" data-name="Line 34" d="M14.44,25H12.5" fill="none" stroke="#4A4A4A" stroke-miterlimit="10" stroke-width="0.75px"></path><path id="Path_10487" data-name="Path 10487" d="M19.72,25h4a3,3,0,0,1,0,6h-12" fill="none" stroke="#4A4A4A" stroke-miterlimit="10" stroke-width="0.75px"></path><path id="Line_35" data-name="Line 35" d="M9.56,16.09,9.5,16" fill="none" stroke="#4A4A4A" stroke-miterlimit="10" stroke-width="0.75px"></path><path id="Line_36" data-name="Line 36" d="M13.25,31v4.49" fill="none" stroke="#4A4A4A" stroke-linecap="round" stroke-miterlimit="10" stroke-width="0.75px"></path><path id="Line_37" data-name="Line 37" d="M25.8,21.23v4.5" fill="#FFFFFF" stroke="#4A4A4A" stroke-linecap="round" stroke-linejoin="round" stroke-width="0.75px"></path><path id="Line_38" data-name="Line 38" d="M25.8,30.23v5.24" fill="#FFFFFF" stroke="#4A4A4A" stroke-linecap="round" stroke-linejoin="round" stroke-width="0.75px"></path></g></g></g></g></g></svg>