<svg xmlns:xlink="http://www.w3.org/1999/xlink" id="domestic_travel" xmlns="http://www.w3.org/2000/svg" width="35" height="35" viewBox="0 0 34 34"><g><g><path d="M3,30.55c-.9,0-1.62-.73-1.62-1.62v-7.97c0-.9,.73-1.62,1.62-1.62h1.62v11.22h-1.62Z" fill="#FFFFFF"></path><path d="M4.25,19.7v10.47h-1.25c-.69,0-1.25-.56-1.25-1.25v-7.97c0-.69,.56-1.25,1.25-1.25h1.25m.75-.75H3c-1.1,0-2,.9-2,2v7.97c0,1.1,.9,2,2,2h2v-11.97h0Z" fill="#4A4A4A"></path></g><g><path d="M29.38,30.55v-11.22h1.62c.9,0,1.62,.73,1.62,1.62v7.97c0,.9-.73,1.62-1.62,1.62h-1.62Z" fill="#FFFFFF"></path><path d="M31,19.7c.69,0,1.25,.56,1.25,1.25v7.97c0,.69-.56,1.25-1.25,1.25h-1.25v-10.47h1.25m0-.75h-2v11.97h2c1.1,0,2-.9,2-2v-7.97c0-1.1-.9-2-2-2h0Z" fill="#4A4A4A"></path></g></g><g><path d="M12.31,6.44v-.37c0-2.59,2.11-4.69,4.69-4.69s4.69,2.11,4.69,4.69v.37H12.31Z" fill="#FFFFFF"></path><path d="M17,1.75c2.38,0,4.32,1.94,4.32,4.32H12.68c0-2.38,1.94-4.32,4.32-4.32m0-.75h0c-2.8,0-5.07,2.27-5.07,5.07v.75h10.14v-.75c0-2.8-2.27-5.07-5.07-5.07h0Z" fill="#4A4A4A"></path></g><g><path d="M6.25,32.62c-.9,0-1.62-.73-1.62-1.62v-13.04c0-6.82,5.55-12.38,12.38-12.38s12.38,5.55,12.38,12.38v13.04c0,.9-.73,1.62-1.62,1.62H6.25Z" fill="#FFFFFF"></path><path d="M17,5.96c6.62,0,12,5.38,12,12v13.04c0,.69-.56,1.25-1.25,1.25H6.25c-.69,0-1.25-.56-1.25-1.25v-13.04c0-6.62,5.38-12,12-12m0-.75h0c-7.04,0-12.75,5.71-12.75,12.75v13.04c0,1.1,.9,2,2,2H27.75c1.1,0,2-.9,2-2v-13.04c0-7.04-5.71-12.75-12.75-12.75h0Z" fill="#4A4A4A"></path></g><g><path d="M6.25,32.62c-.9,0-1.62-.73-1.62-1.62v-13.04c0-6.82,5.55-12.38,12.38-12.38s12.38,5.55,12.38,12.38v13.04c0,.9-.73,1.62-1.62,1.62H6.25Z" fill="#FFFFFF"></path><path d="M17,5.96c6.62,0,12,5.38,12,12v13.04c0,.69-.56,1.25-1.25,1.25H6.25c-.69,0-1.25-.56-1.25-1.25v-13.04c0-6.62,5.38-12,12-12m0-.75h0c-7.04,0-12.75,5.71-12.75,12.75v13.04c0,1.1,.9,2,2,2H27.75c1.1,0,2-.9,2-2v-13.04c0-7.04-5.71-12.75-12.75-12.75h0Z" fill="#4A4A4A"></path></g><g><g><path d="M7.77,32.62v-8.36c0-1.67,1.36-3.02,3.02-3.02h12.42c1.67,0,3.02,1.36,3.02,3.02v8.36H7.77Z" fill="#FFFFFF"></path><path d="M23.21,21.62c1.46,0,2.65,1.19,2.65,2.65v7.98H8.14v-7.98c0-1.46,1.19-2.65,2.65-2.65h12.42m0-.75H10.79c-1.88,0-3.4,1.52-3.4,3.4v8.73H26.61v-8.73c0-1.88-1.52-3.4-3.4-3.4h0Z" fill="#4A4A4A"></path></g><path d="M23.21,20.87H10.79c-1.88,0-3.4,1.52-3.4,3.4v1.81H26.61v-1.81c0-1.88-1.52-3.4-3.4-3.4Z" fill="#00B4FF"></path><path d="M23.21,21.62c1.46,0,2.65,1.19,2.65,2.65v1.06H8.14v-1.06c0-1.46,1.19-2.65,2.65-2.65h12.42m0-.75H10.79c-1.88,0-3.4,1.52-3.4,3.4v1.81H26.61v-1.81c0-1.88-1.52-3.4-3.4-3.4h0Z" fill="#4A4A4A"></path><line x1="23" y1="25.89" x2="23" y2="27.95" fill="#FFFFFF" stroke="#4A4A4A" stroke-linecap="round" stroke-linejoin="round" stroke-width="0.75px"></line></g></svg>