<?xml version="1.0" encoding="utf-8"?>
<!-- Generator: Adobe Illustrator 25.0.1, SVG Export Plug-In . SVG Version: 6.00 Build 0)  -->
<svg version="1.1" id="Layer_1" xmlns="http://www.w3.org/2000/svg" xmlns:xlink="http://www.w3.org/1999/xlink" x="0px" y="0px"
	 viewBox="0 0 72 72" style="enable-background:new 0 0 72 72;" xml:space="preserve">
<style type="text/css">
	.st0{fill-rule:evenodd;clip-rule:evenodd;fill:#FFFFFF;}
	.st1{fill:#4B4A4B;}
	.st2{fill-rule:evenodd;clip-rule:evenodd;fill:#4182C4;}
	.st3{fill-rule:evenodd;clip-rule:evenodd;fill:#FBBA10;}
	.st4{fill:#FBBA10;}
</style>
<g id="Layer_2_2_">
	<g id="Layer_1-2_1_">
		<path class="st0" d="M6.37,13.38h59.26c3.07,0.01,5.56,2.49,5.58,5.56v38.55c-0.01,3.07-2.5,5.56-5.58,5.56H6.37
			c-3.07,0-5.57-2.49-5.58-5.56V18.95C0.81,15.88,3.3,13.39,6.37,13.38z"/>
		<path class="st1" d="M65.63,63.86H6.37C2.85,63.86,0,61.01,0,57.49c0,0,0,0,0,0V18.95c0.01-3.51,2.86-6.35,6.37-6.35h59.26
			c3.51,0,6.36,2.84,6.37,6.35v38.55C72,61.01,69.15,63.86,65.63,63.86L65.63,63.86z M6.37,14.18c-2.63,0.01-4.76,2.14-4.77,4.77
			v38.55c0,2.63,2.14,4.77,4.77,4.77c0,0,0,0,0,0h59.26c2.63,0,4.77-2.14,4.77-4.77c0,0,0,0,0,0V18.95
			c-0.01-2.63-2.14-4.76-4.77-4.77L6.37,14.18z"/>
		<path class="st0" d="M12.22,63.21h3.96c1.08,0.01,1.96,0.89,1.95,1.98c0,0.02,0,0.04,0,0.05l0,0c-0.04,1.05-0.89,1.89-1.95,1.89
			h-3.96c-1.03-0.04-1.86-0.86-1.89-1.89l0,0C10.3,64.16,11.14,63.26,12.22,63.21z"/>
		<path class="st1" d="M16.18,67.93h-3.96c-1.52,0-2.75-1.23-2.75-2.75c0-1.52,1.23-2.75,2.75-2.75h3.96c1.52,0,2.75,1.23,2.75,2.75
			C18.94,66.69,17.71,67.93,16.18,67.93z M12.22,64.02c-0.64-0.01-1.16,0.5-1.17,1.14c0,0.01,0,0.01,0,0.02
			c0,0.65,0.52,1.17,1.17,1.17l0,0h3.96c0.64-0.01,1.15-0.53,1.15-1.17c0-0.64-0.52-1.15-1.15-1.15H12.22z"/>
		<path class="st0" d="M56.68,63.05h3.96c1.08,0.01,1.95,0.88,1.96,1.96l0,0c-0.02,1.07-0.89,1.94-1.96,1.95h-3.96
			c-1.08,0-1.96-0.88-1.96-1.96l0,0c0.01-1.08,0.88-1.95,1.96-1.96L56.68,63.05z"/>
		<path class="st1" d="M60.64,67.77h-3.96c-1.52,0-2.75-1.23-2.75-2.75c0-1.52,1.23-2.75,2.75-2.75h3.96c1.52,0,2.75,1.23,2.75,2.75
			C63.39,66.54,62.16,67.77,60.64,67.77z M56.68,63.86c-0.64,0-1.16,0.51-1.17,1.15c0.01,0.64,0.53,1.16,1.17,1.17h3.96
			c0.64-0.01,1.15-0.53,1.15-1.17c0-0.64-0.52-1.15-1.15-1.15H56.68z"/>
		<polygon class="st2" points="14.24,13.38 22.12,13.38 22.12,63.05 14.24,63.05 14.24,13.38 		"/>
		<path class="st1" d="M22.79,63.74h-9.25V12.7h9.25V63.74z M14.93,62.37h6.51V14.16h-6.51V62.37z"/>
		<path class="st1" d="M50.26,14.02H19.27v-1.14c0.01-5.32,4.33-9.63,9.66-9.62c0.02,0,0.03,0,0.05,0h11.67
			c5.31,0.01,9.61,4.32,9.61,9.62V14.02z M20.99,12.42h27.67c-0.25-4.24-3.76-7.55-8.01-7.56H28.98c-4.25,0-7.76,3.32-8.01,7.56
			H20.99z"/>
		<polygon class="st2" points="49.6,13.38 57.49,13.38 57.49,63.02 49.6,63.02 49.6,13.38 		"/>
		<path class="st1" d="M58.18,63.71h-9.26V12.7h9.26V63.71z M50.29,62.33h6.53V14.13h-6.53V62.33z"/>
		<path class="st3" d="M58.16,47.35l1.03,0.38c1.34,0.5,2.03,1.99,1.53,3.34l-0.59,1.57c-0.51,1.34-2,2.02-3.34,1.52l-1.03-0.4
			c-1.33-0.51-2-1.99-1.52-3.32l0.59-1.57C55.33,47.53,56.82,46.85,58.16,47.35z"/>
		<path class="st1" d="M57.71,55.12c-0.41,0-0.81-0.07-1.19-0.22l-1.03-0.38c-1.73-0.67-2.62-2.6-2-4.36l0.59-1.57
			c0.67-1.73,2.6-2.62,4.36-2l1.05,0.4c1.73,0.68,2.6,2.61,1.98,4.36l-0.59,1.57c-0.3,0.84-0.92,1.52-1.72,1.89
			C58.7,55.02,58.21,55.12,57.71,55.12z M57.26,48.02c-0.76-0.01-1.45,0.46-1.72,1.17l-0.59,1.57c-0.37,0.88,0.04,1.89,0.91,2.26
			c0.04,0.02,0.09,0.04,0.14,0.05l1.05,0.38c0.88,0.36,1.89-0.06,2.25-0.94c0.02-0.04,0.03-0.08,0.04-0.11l0.59-1.57
			c0.36-0.88-0.06-1.89-0.94-2.25c-0.04-0.02-0.08-0.03-0.11-0.04l-1.03-0.4C57.66,48.08,57.46,48.04,57.26,48.02z"/>
		<polygon class="st3" points="10.81,43.72 17.66,43.72 17.66,50.23 10.81,50.23 10.81,43.72 		"/>
		<path class="st1" d="M18.46,51.04h-8.44v-8.18h8.44V51.04z M11.57,49.44h5.16v-4.86h-5.16V49.44z"/>
		<path class="st2" d="M14.36,28.48h7.68c1.42,0.01,2.57,1.16,2.58,2.58v3.44c0,1.43-1.16,2.58-2.58,2.58h-7.68
			c-1.43,0-2.58-1.16-2.58-2.58v-3.44C11.79,29.64,12.94,28.49,14.36,28.48z"/>
		<path class="st1" d="M22.04,37.85h-7.68c-1.9,0-3.44-1.54-3.44-3.44v-3.44c0-1.9,1.54-3.44,3.44-3.44h7.68
			c1.9,0,3.44,1.54,3.44,3.44v3.44C25.48,36.31,23.94,37.85,22.04,37.85z M14.36,29.24c-0.95,0-1.72,0.77-1.72,1.72v3.44
			c0,0.95,0.77,1.72,1.72,1.72h7.68c0.95,0,1.72-0.77,1.72-1.72v-3.44c0-0.95-0.77-1.72-1.72-1.72H14.36z"/>
		<path class="st2" d="M49.79,28.14h7.66c1.44,0,2.6,1.16,2.6,2.6c0,0.02,0,0.05,0,0.07v3.44c-0.01,1.43-1.17,2.58-2.6,2.58h-7.66
			c-1.43,0-2.58-1.16-2.58-2.58v-3.44c0-1.43,1.16-2.58,2.58-2.58V28.14z"/>
		<path class="st1" d="M57.45,37.51h-7.66c-1.9,0-3.44-1.54-3.44-3.44v-3.25c0-1.9,1.54-3.44,3.44-3.44h7.66
			c1.9,0,3.44,1.54,3.44,3.44v3.44C60.79,36.08,59.28,37.51,57.45,37.51z M49.79,28.9c-0.95,0-1.72,0.77-1.72,1.72v3.44
			c0,0.95,0.77,1.72,1.72,1.72h7.66c0.95,0,1.72-0.77,1.72-1.72v-3.25c0-0.95-0.77-1.72-1.72-1.72L49.79,28.9z"/>
		<polygon class="st4" points="52.94,22.63 44.45,26.73 46.57,20.48 52.94,22.63 		"/>
		<path class="st1" d="M44.45,27.52c-0.19,0-0.37-0.07-0.52-0.19c-0.25-0.21-0.34-0.55-0.24-0.86l2.12-6.25
			c0.15-0.41,0.6-0.64,1.02-0.5l6.37,2.15c0.42,0.15,0.63,0.62,0.48,1.04c-0.07,0.19-0.21,0.35-0.39,0.44l-8.52,4.1
			C44.66,27.49,44.56,27.52,44.45,27.52z M47.07,21.49l-1.24,3.68l5.01-2.41L47.07,21.49z"/>
	</g>
</g>
</svg>
