<?xml version="1.0" encoding="utf-8"?>
<!-- Generator: Adobe Illustrator 25.0.1, SVG Export Plug-In . SVG Version: 6.00 Build 0)  -->
<svg version="1.1" id="Layer_1" xmlns="http://www.w3.org/2000/svg" xmlns:xlink="http://www.w3.org/1999/xlink" x="0px" y="0px"
	 viewBox="0 0 72 72" style="enable-background:new 0 0 72 72;" xml:space="preserve">
<style type="text/css">
	.st0{fill:#4B4A4B;}
	.st1{fill-rule:evenodd;clip-rule:evenodd;fill:#FBBA10;}
	.st2{fill-rule:evenodd;clip-rule:evenodd;fill:#4182C4;}
	.st3{fill-rule:evenodd;clip-rule:evenodd;fill:#FFFFFF;}
	.st4{fill:#4182C4;}
</style>
<g id="Layer_2_2_">
	<g id="Layer_1-2_1_">
		<path class="st0" d="M11.73,57.38c-6.57-0.23-11.73-5.7-11.59-12.27c-0.21-6.61,4.97-12.15,11.59-12.38
			c6.61,0.24,11.78,5.77,11.59,12.38C23.46,51.68,18.3,57.15,11.73,57.38z M11.73,34.23C5.94,34.44,1.43,39.3,1.63,45.08
			c0,0.01,0,0.02,0,0.03c-0.18,5.76,4.33,10.57,10.09,10.77c5.76-0.2,10.27-5.02,10.09-10.77c0.23-5.78-4.27-10.66-10.06-10.88
			C11.75,34.23,11.74,34.23,11.73,34.23z"/>
		<path class="st1" d="M11.73,39.44c3.06,0,5.54,2.48,5.54,5.54c0,3.06-2.48,5.54-5.54,5.54s-5.54-2.48-5.54-5.54
			C6.18,41.92,8.66,39.44,11.73,39.44z"/>
		<path class="st0" d="M11.73,51.4c-3.4-0.08-6.09-2.89-6.04-6.28c-0.15-3.42,2.49-6.31,5.91-6.46c0.05,0,0.09,0,0.14,0
			c3.42,0.12,6.09,2.99,5.97,6.4c0,0.02,0,0.04,0,0.07C17.75,48.48,15.09,51.28,11.73,51.4z M11.73,40.31
			c-2.64,0.23-4.6,2.56-4.37,5.21c0.2,2.32,2.04,4.16,4.37,4.37c2.64-0.23,4.6-2.56,4.37-5.21C15.89,42.35,14.05,40.51,11.73,40.31z
			"/>
		<path class="st2" d="M60.29,33.14c6.19,0.21,11.04,5.4,10.83,11.59c0.2,6.18-4.65,11.36-10.83,11.57
			c-6.19-0.2-11.04-5.38-10.85-11.57C49.25,38.53,54.1,33.35,60.29,33.14z"/>
		<path class="st0" d="M60.29,57.09c-6.61-0.23-11.78-5.76-11.59-12.36c-0.21-6.61,4.97-12.15,11.59-12.38
			c6.61,0.24,11.78,5.77,11.57,12.38C72.07,51.33,66.9,56.86,60.29,57.09z M60.29,33.93c-5.77,0.2-10.29,5.03-10.11,10.79
			c-0.17,5.76,4.35,10.57,10.11,10.77c5.75-0.21,10.25-5.02,10.07-10.77c0.13-5.72-4.36-10.48-10.07-10.7V33.93z"/>
		<path class="st3" d="M60.29,39.14c3.06-0.17,5.68,2.16,5.85,5.22c0.17,3.06-2.16,5.68-5.22,5.85c-3.06,0.17-5.68-2.16-5.85-5.22
			c-0.01-0.1-0.01-0.2-0.01-0.31C54.99,41.72,57.32,39.24,60.29,39.14z"/>
		<path class="st0" d="M60.29,51.1c-3.41-0.11-6.09-2.96-5.99-6.38c-0.18-3.3,2.34-6.13,5.65-6.31c3.3-0.18,6.13,2.34,6.31,5.65
			c0.01,0.22,0.01,0.44,0,0.67C66.36,48.13,63.7,50.98,60.29,51.1z M60.29,40.01c-2.65-0.15-4.92,1.87-5.07,4.52
			c-0.15,2.65,1.87,4.92,4.52,5.07c2.65,0.15,4.92-1.87,5.07-4.52c0.01-0.12,0.01-0.24,0.01-0.36c0.07-2.57-1.95-4.71-4.52-4.79
			c0,0,0,0,0,0V40.01z"/>
		<path class="st0" d="M57.1,29.05H8.1c-2.24-0.08-4-1.96-3.92-4.21c0-0.02,0-0.04,0-0.06c-0.03-2.21,1.71-4.04,3.92-4.12H57.1
			c2.25,0.03,4.05,1.87,4.03,4.12c0.11,2.24-1.61,4.15-3.86,4.26C57.21,29.05,57.15,29.05,57.1,29.05z M8.1,22.25
			c-1.35,0.06-2.42,1.18-2.42,2.53c-0.08,1.4,0.98,2.59,2.38,2.68c0.01,0,0.03,0,0.04,0H57.1c1.4-0.05,2.49-1.22,2.44-2.62
			c0-0.02,0-0.04,0-0.06c0.04-1.39-1.05-2.56-2.44-2.61L8.1,22.25z"/>
		<path class="st3" d="M27.23,21.46l12.55-3.7c5.77-1.68,13.18-0.26,11.09,8.72c-0.2,0.92-0.72,1.7-1.61,1.7H27.08v-6.73H27.23z"/>
		<path class="st0" d="M49.33,29.05H26.49v-8.21l13.08-3.79c3.42-0.98,8-1.07,10.61,1.63c1.2,1.26,2.46,3.7,1.48,8.06
			C51.33,28.2,50.46,29.05,49.33,29.05z M27.99,27.46h21.34c0.57,0,0.79-0.76,0.87-1.09c0.67-2.94,0.31-5.14-1.07-6.56
			c-2.14-2.24-6.28-2.05-9.24-1.22l-11.9,3.47V27.46z"/>
		<path class="st0" d="M28.67,47.96l-2.66-5.86l-9.89,1.26l-1.88-3.79l7.39-7.39l-1.44-3.27l1.35-0.68l8.17,18.15l14.78-0.09
			l4.16-15.28h5.3l-7.87-19.4h-7.95V10h8.93l11.85,29.27l-1.37,0.63l-2.99-7.39h-4.8l-4.18,15.28L28.67,47.96z M16.11,39.94
			l0.91,1.72l8.41-1.07l-3.1-6.87L16.11,39.94z"/>
		<polygon class="st2" points="32,33.17 41.98,33.17 41.98,39.24 32,39.24 32,33.17 		"/>
		<path class="st4" d="M42.74,40.03H31.26v-7.65h11.48V40.03z M32.74,38.44h8.5v-4.42h-8.5V38.44z"/>
		<polygon class="st0" points="32.31,46.61 31.54,46.61 31.54,41.88 33.09,41.88 33.09,46.61 32.31,46.61 		"/>
		<polygon class="st0" points="35.47,46.65 34.7,46.65 34.7,41.9 36.25,41.9 36.25,46.65 35.47,46.65 		"/>
		<polygon class="st0" points="38.56,46.65 37.78,46.65 37.78,41.92 39.34,41.92 39.34,46.65 38.56,46.65 		"/>
		<polygon class="st0" points="41.79,46.65 41.02,46.65 41.02,41.9 42.57,41.9 42.57,46.65 41.79,46.65 		"/>
	</g>
</g>
</svg>
