<?xml version="1.0" encoding="utf-8"?>
<!-- Generator: Adobe Illustrator 25.0.1, SVG Export Plug-In . SVG Version: 6.00 Build 0)  -->
<svg version="1.1" id="Layer_1" xmlns="http://www.w3.org/2000/svg" xmlns:xlink="http://www.w3.org/1999/xlink" x="0px" y="0px"
	 viewBox="0 0 72 72" style="enable-background:new 0 0 72 72;" xml:space="preserve">
<style type="text/css">
	.st0{fill-rule:evenodd;clip-rule:evenodd;fill:#4182C4;}
	.st1{fill:#39ABE2;}
	.st2{fill:#4B4A4B;}
</style>
<g id="Layer_2_1_">
	<g id="Layer_1-2">
		<path class="st0" d="M46.12,4.93c3.27-0.01,5.94,2.64,5.94,5.91c0.01,3.27-2.64,5.94-5.91,5.94c-3.27,0.01-5.94-2.64-5.94-5.91
			c0-0.01,0-0.01,0-0.02C40.21,7.59,42.85,4.94,46.12,4.93z"/>
		<path class="st1" d="M46.12,4.88c3.3,0.04,5.94,2.76,5.9,6.06c-0.04,3.3-2.76,5.94-6.06,5.9c-3.3-0.04-5.94-2.76-5.9-6.06
			c0.02-1.6,0.68-3.12,1.83-4.23C43.03,5.46,44.54,4.86,46.12,4.88z M50.26,6.7C48,4.39,44.29,4.34,41.97,6.61s-2.36,5.97-0.09,8.29
			c2.26,2.31,5.97,2.36,8.29,0.09c1.11-1.09,1.75-2.57,1.76-4.13C51.95,9.31,51.35,7.81,50.26,6.7z"/>
		<path class="st2" d="M28.6,0.02c4-0.01,7.25,3.23,7.26,7.23c0.01,4-3.23,7.25-7.23,7.26c-4,0.01-7.25-3.23-7.26-7.23
			c0-1.93,0.76-3.78,2.12-5.14C24.84,0.78,26.68,0.02,28.6,0.02z M32.69,3.16c-1.08-1.08-2.56-1.68-4.09-1.67
			c-3.2,0.17-5.65,2.9-5.48,6.1c0.16,2.96,2.52,5.32,5.48,5.48c3.2-0.01,5.79-2.6,5.79-5.79c0.01-1.53-0.59-3-1.67-4.09L32.69,3.16z
			"/>
		<path class="st2" d="M46.12,3.63c3.99,0.01,7.22,3.24,7.23,7.23c0,3.99-3.24,7.23-7.23,7.23s-7.23-3.24-7.23-7.23
			S42.12,3.63,46.12,3.63C46.12,3.63,46.12,3.63,46.12,3.63z M50.21,6.7c-2.24-2.26-5.89-2.28-8.15-0.03s-2.28,5.89-0.03,8.15
			s5.89,2.28,8.15,0.03c1.08-1.07,1.7-2.53,1.7-4.06C51.89,9.26,51.29,7.79,50.21,6.7z"/>
		<path class="st2" d="M37.05,24.04c3.99,0,7.23,3.24,7.23,7.23s-3.24,7.23-7.23,7.23l0,0c-3.99,0-7.23-3.24-7.23-7.23
			C29.82,27.27,33.06,24.04,37.05,24.04z M41.14,27.17c-1.09-1.08-2.56-1.68-4.09-1.67c-3.2-0.17-5.93,2.28-6.1,5.48
			c-0.17,3.2,2.28,5.93,5.48,6.1c0.21,0.01,0.41,0.01,0.62,0c3.19,0.01,5.78-2.58,5.79-5.77c0-1.54-0.61-3.02-1.7-4.1V27.17z"/>
		<path class="st2" d="M44.6,45.94v9.18h2.89v-6.16c0-5.7-4.62-10.32-10.32-10.32c-5.7,0-10.32,4.62-10.32,10.32v6.16h2.76v-9.18
			h1.49v21.39c0,0.45,0.18,0.87,0.5,1.19c0.31,0.31,0.73,0.48,1.17,0.48h8.68c0.92,0,1.67-0.75,1.67-1.67l0,0V45.94H44.6z
			 M44.6,56.55v10.79c0.01,1.73-1.39,3.15-3.12,3.16c-0.01,0-0.02,0-0.03,0h-8.68c-0.83,0-1.63-0.33-2.22-0.92
			c-0.59-0.59-0.93-1.4-0.94-2.24V56.55h-3.54c-0.4,0-0.72-0.32-0.72-0.72l0,0v-6.86c0-6.5,5.27-11.76,11.76-11.76
			s11.76,5.27,11.76,11.76v6.86c-0.01,0.4-0.34,0.72-0.73,0.72H44.6z"/>
		<polygon class="st2" points="37.07,70.22 36.28,70.22 36.28,57.35 37.84,57.35 37.84,70.22 37.07,70.22 		"/>
		<path class="st2" d="M32.32,69.36c-0.39,1.53-1.76,2.6-3.34,2.62h-5.29c-1.92,0-3.47-1.56-3.47-3.47c0-0.01,0-0.01,0-0.02V46.23
			c-1.3-0.81-2.39-1.91-3.17-3.22c-0.84-1.43-1.29-3.06-1.29-4.73V22.53c0.01-5.15,4.18-9.33,9.33-9.33h7.36
			c1.51,0,2.99,0.36,4.33,1.07c1.2,0.63,2.25,1.51,3.07,2.59l0.58-0.08c0.36-0.02,0.72-0.02,1.09,0h7.3
			c5.15,0.01,9.33,4.18,9.33,9.33v17.75c0,1.82-0.54,3.6-1.54,5.13c-0.92,1.38-2.19,2.5-3.67,3.24v16.55c0,0.85-0.34,1.66-0.94,2.25
			c-0.6,0.6-1.41,0.94-2.25,0.94h-4.71c-1.53-0.01-2.84-1.1-3.12-2.61h1.49c0.09,0.24,0.24,0.47,0.42,0.65
			c0.32,0.33,0.76,0.51,1.22,0.5h4.71c0.46,0.01,0.91-0.17,1.24-0.5c0.32-0.33,0.5-0.77,0.5-1.24V51.3l0.43-0.18
			c1.42-0.62,2.64-1.64,3.49-2.94c0.85-1.28,1.29-2.79,1.29-4.33V26.04c-0.02-4.35-3.53-7.87-7.88-7.9h-7.33
			c-0.31-0.02-0.61-0.02-0.92,0c-0.3,0.03-0.59,0.08-0.89,0.15l-0.48,0.12l-0.28-0.42c-1.48-2.11-3.89-3.36-6.46-3.36h-7.36
			c-4.36,0.01-7.88,3.54-7.88,7.9v15.75c-0.01,1.4,0.37,2.78,1.09,3.99c0.73,1.19,1.76,2.17,2.99,2.84l0.37,0.22v23.16
			c0,0.54,0.22,1.05,0.6,1.44c0.38,0.38,0.9,0.6,1.44,0.6h5.26c0.79,0,1.5-0.45,1.84-1.17H32.32z"/>
	</g>
</g>
</svg>
