<?xml version="1.0" encoding="utf-8"?>
<!-- Generator: Adobe Illustrator 25.0.1, SVG Export Plug-In . SVG Version: 6.00 Build 0)  -->
<svg version="1.1" id="Layer_1" xmlns="http://www.w3.org/2000/svg" xmlns:xlink="http://www.w3.org/1999/xlink" x="0px" y="0px"
	 viewBox="0 0 72 72" style="enable-background:new 0 0 72 72;" xml:space="preserve">
<style type="text/css">
	.st0{fill:#4B4A4B;}
	.st1{fill-rule:evenodd;clip-rule:evenodd;fill:#4182C4;}
	.st2{fill:#4182C4;}
	.st3{fill-rule:evenodd;clip-rule:evenodd;fill:#FBBA10;}
</style>
<g id="Layer_2_2_">
	<g id="Layer_1-2_1_">
		<path class="st0" d="M7.7,2.64h3.5v1.63H7.7c-3.18,0-5.75,2.58-5.75,5.75v16.1c0,9.7,7.87,17.57,17.57,17.57
			s17.57-7.87,17.57-17.57v-16.1c0-3.18-2.58-5.75-5.75-5.75c-0.01,0-0.01,0-0.02,0h-2.06V2.64h2.06c4.08-0.04,7.43,3.24,7.47,7.33
			c0,0.02,0,0.04,0,0.05v16.1c0,10.62-8.61,19.23-19.23,19.23S0.32,36.74,0.32,26.12v-16.1C0.33,5.94,3.63,2.65,7.7,2.64z"/>
		<polygon class="st0" points="37.06,31.99 37.06,32.83 2.4,32.83 2.4,31.14 37.06,31.14 37.06,31.99 		"/>
		<path class="st1" d="M12.91,1.24c1.21-0.15,2.31,0.7,2.46,1.91c0.15,1.21-0.7,2.31-1.91,2.46c-0.18,0.02-0.37,0.02-0.55,0
			c-1.21,0.15-2.31-0.7-2.46-1.91c-0.15-1.21,0.7-2.31,1.91-2.46C12.54,1.21,12.73,1.21,12.91,1.24z"/>
		<path class="st2" d="M12.91,6.47c-1.67,0.01-3.03-1.34-3.04-3.01s1.34-3.03,3.01-3.04s3.03,1.34,3.04,3.01c0,0.01,0,0.01,0,0.02
			C15.91,5.1,14.57,6.45,12.91,6.47z M12.91,2.11c-0.76-0.01-1.39,0.6-1.4,1.36c0,0.01,0,0.01,0,0.02c0,0.77,0.63,1.4,1.4,1.4l0,0
			c0.76,0.01,1.39-0.6,1.4-1.36c0-0.03,0-0.06,0-0.09C14.28,2.69,13.66,2.1,12.91,2.11z"/>
		<path class="st1" d="M26.55,1.17c1.22,0.04,2.17,1.06,2.13,2.27c-0.04,1.22-1.06,2.17-2.27,2.13c-1.19-0.04-2.13-1.01-2.13-2.2
			c0-1.22,0.99-2.2,2.2-2.2C26.5,1.17,26.53,1.17,26.55,1.17z"/>
		<path class="st2" d="M26.55,6.4c-1.67,0.01-3.03-1.34-3.04-3.01c-0.01-1.67,1.34-3.03,3.01-3.04c1.67-0.01,3.03,1.34,3.04,3.01
			c0,0.01,0,0.01,0,0.02c0.01,1.66-1.33,3.02-2.99,3.02C26.56,6.4,26.56,6.4,26.55,6.4z M26.55,1.99c-0.77,0-1.4,0.63-1.4,1.4
			c0,0.77,0.63,1.4,1.4,1.4s1.4-0.63,1.4-1.4c0-0.01,0-0.01,0-0.02C27.94,2.6,27.32,1.99,26.55,1.99z"/>
		<path class="st1" d="M17.55,48.55v-3.01h-2.55c-0.82,0-1.49-0.65-1.52-1.47l0,0c0-0.84,0.68-1.52,1.52-1.52h0h9.11
			c0.84,0,1.52,0.68,1.52,1.52l0,0l0,0c0,0.84-0.68,1.52-1.52,1.52c0,0,0,0,0,0h-2.26v3.01c-0.01,1.18-0.97,2.14-2.15,2.15l0,0
			c-1.18-0.01-2.14-0.97-2.15-2.15V48.55z"/>
		<path class="st0" d="M19.7,51.5c-1.63,0-2.95-1.32-2.95-2.95c0,0,0,0,0,0v-2.2h-1.75c-1.29,0.11-2.42-0.84-2.54-2.13
			c-0.11-1.29,0.84-2.42,2.13-2.54c0.13-0.01,0.27-0.01,0.4,0h9.11c1.29-0.11,2.42,0.84,2.54,2.13s-0.84,2.42-2.13,2.54
			c-0.13,0.01-0.27,0.01-0.4,0h-1.45v2.2C22.65,50.18,21.33,51.5,19.7,51.5L19.7,51.5z M14.99,43.3c-0.39-0.06-0.76,0.21-0.82,0.6
			c-0.06,0.39,0.21,0.76,0.6,0.82c0.07,0.01,0.15,0.01,0.22,0h3.37v3.83c0,0.73,0.6,1.33,1.33,1.33c0.73,0,1.33-0.59,1.33-1.33
			v-3.83h3.08c0.39,0.06,0.76-0.21,0.82-0.6c0.06-0.39-0.21-0.76-0.6-0.82c-0.07-0.01-0.15-0.01-0.22,0H14.99z"/>
		<path class="st0" d="M41.71,37.6v-13.1c0-6.79,5.51-12.3,12.3-12.3c6.79,0,12.3,5.51,12.3,12.3v14.41c0,0.22-0.09,0.43-0.24,0.58
			c-0.15,0.15-0.35,0.23-0.56,0.23c-0.21,0-0.42-0.08-0.58-0.23c-0.16-0.15-0.25-0.36-0.24-0.58V24.51
			c-0.24-5.9-5.21-10.48-11.11-10.24c-5.56,0.23-10.02,4.68-10.24,10.24v12.57l0,0v22.27c0,6.79-5.51,12.3-12.3,12.3
			s-12.3-5.51-12.3-12.3v-8.29h1.63v8.23c0.24,5.9,5.21,10.48,11.11,10.24c5.56-0.23,10.02-4.68,10.24-10.24
			C41.71,59.3,41.71,37.6,41.71,37.6z"/>
		<path class="st0" d="M65.52,50.84c-3.4,0-6.15-2.76-6.15-6.15c0-3.4,2.76-6.15,6.15-6.15c3.4,0,6.15,2.76,6.15,6.15
			c0,0.01,0,0.01,0,0.02c0,3.39-2.75,6.14-6.14,6.14C65.53,50.84,65.53,50.84,65.52,50.84z M65.52,40.17c-2.5,0-4.53,2.03-4.53,4.53
			c0,2.5,2.03,4.53,4.53,4.53c2.5,0,4.53-2.03,4.53-4.53C70.05,42.2,68.02,40.17,65.52,40.17L65.52,40.17z"/>
		<path class="st3" d="M65.52,42.13c1.42,0,2.57,1.15,2.57,2.57c0,1.42-1.15,2.57-2.57,2.57c-1.42,0-2.57-1.15-2.57-2.57
			C62.95,43.28,64.1,42.13,65.52,42.13L65.52,42.13z"/>
		<path class="st0" d="M65.52,48.08c-1.87,0-3.39-1.52-3.39-3.39c0-1.87,1.52-3.39,3.39-3.39c1.87,0,3.39,1.52,3.39,3.39
			c0,0.01,0,0.01,0,0.02c0,1.86-1.51,3.37-3.37,3.37C65.53,48.08,65.53,48.08,65.52,48.08z M65.52,42.94
			c-0.97,0-1.75,0.78-1.75,1.75s0.78,1.75,1.75,1.75s1.75-0.78,1.75-1.75S66.49,42.94,65.52,42.94z"/>
	</g>
</g>
</svg>
