<?xml version="1.0" encoding="utf-8"?>
<!-- Generator: Adobe Illustrator 25.0.1, SVG Export Plug-In . SVG Version: 6.00 Build 0)  -->
<svg version="1.1" id="Layer_1" xmlns="http://www.w3.org/2000/svg" xmlns:xlink="http://www.w3.org/1999/xlink" x="0px" y="0px"
	 viewBox="0 0 50 50" style="enable-background:new 0 0 50 50;" xml:space="preserve">
<style type="text/css">
	.st0{fill:#FFFFFF;}
	.st1{fill:none;stroke:#030304;}
</style>
<circle class="st0" cx="11.5" cy="36.61" r="11.5"/>
<circle class="st0" cx="38.5" cy="36.61" r="11.5"/>
<path class="st1" d="M22.29,12.7V8.93c0-2.39-1.56-7.17-7.81-7.17S6.42,6.54,6.29,8.93c0,4.53,0,15.09,0,21.13s3.47,9.05,5.21,9.81
	c1.1,0.46,3.49,1.39,4.29,1.39"/>
<path class="st1" d="M47.17,12.7V8.93c0-2.39-1.56-7.17-7.81-7.17s-8.06,4.78-8.19,7.17c0,4.53,0,15.09,0,21.13s3.47,9.05,5.21,9.81
	c1.1,0.46,3.49,1.39,4.29,1.39"/>
</svg>
