<svg xmlns:xlink="http://www.w3.org/1999/xlink" xmlns="http://www.w3.org/2000/svg" width="35" height="35"><g data-name="Layer 2"><rect x="19.68" y="19.67" width="12.45" height="12.45" rx="2.08" fill="#FFFFFF"></rect><path d="M30.05 20.05a1.7 1.7 0 0 1 1.7 1.7v8.3a1.7 1.7 0 0 1-1.7 1.7h-8.3a1.7 1.7 0 0 1-1.7-1.7v-8.3a1.7 1.7 0 0 1 1.7-1.7h8.3m0-.75h-8.3a2.45 2.45 0 0 0-2.45 2.45v8.3a2.45 2.45 0 0 0 2.45 2.45h8.3a2.45 2.45 0 0 0 2.45-2.45v-8.3a2.45 2.45 0 0 0-2.45-2.45Z" fill="#4A4A4A"></path><rect x="19.68" y="2.88" width="12.45" height="12.45" rx="2.08" fill="#FFFFFF"></rect><path d="M30.05 3.25A1.7 1.7 0 0 1 31.75 5v8.3a1.7 1.7 0 0 1-1.7 1.7h-8.3a1.7 1.7 0 0 1-1.7-1.7V5a1.7 1.7 0 0 1 1.7-1.7h8.3m0-.75h-8.3A2.45 2.45 0 0 0 19.3 5v8.3a2.45 2.45 0 0 0 2.45 2.45h8.3a2.45 2.45 0 0 0 2.45-2.45V5a2.45 2.45 0 0 0-2.4-2.5h-.05Z" fill="#4A4A4A"></path><rect x="2.88" y="19.67" width="12.45" height="12.45" rx="2.08" fill="#FFFFFF"></rect><path d="M13.25 20.05a1.7 1.7 0 0 1 1.7 1.7v8.3a1.7 1.7 0 0 1-1.7 1.7H5a1.7 1.7 0 0 1-1.7-1.7v-8.3a1.7 1.7 0 0 1 1.7-1.7h8.3m0-.75H5a2.45 2.45 0 0 0-2.5 2.45v8.3A2.45 2.45 0 0 0 5 32.5h8.3a2.45 2.45 0 0 0 2.45-2.45v-8.3a2.45 2.45 0 0 0-2.45-2.45Z" fill="#4A4A4A"></path><circle cx="9.1" cy="9.1" r="6.6" fill="#008FFF"></circle><circle cx="9.1" cy="9.1" r="6.6" fill="none" stroke="#4A4A4A" stroke-linecap="round" stroke-linejoin="round" stroke-width="0.75px"></circle><path fill="none" d="M0 0h35v35H0z"></path></g></svg>