<?xml version="1.0" encoding="utf-8"?>
<!-- Generator: Adobe Illustrator 25.0.1, SVG Export Plug-In . SVG Version: 6.00 Build 0)  -->
<svg version="1.1" id="Layer_1" xmlns="http://www.w3.org/2000/svg" xmlns:xlink="http://www.w3.org/1999/xlink" x="0px" y="0px"
	 viewBox="0 0 72 72" style="enable-background:new 0 0 72 72;" xml:space="preserve">
<style type="text/css">
	.st0{fill:#4B4A4B;}
	.st1{fill-rule:evenodd;clip-rule:evenodd;fill:#4182C4;}
	.st2{fill:#4182C4;}
	.st3{fill-rule:evenodd;clip-rule:evenodd;fill:#FBBA10;}
</style>
<g id="Layer_2_1_">
	<g id="Layer_1-2">
		<path class="st0" d="M11.39,51.49h-0.23c-2.07-0.03-3.74-1.7-3.77-3.77v-3.84h7.77v3.84c-0.03,2.09-1.74,3.77-3.84,3.77H11.39z
			 M11.16,50.21h0.23c1.37-0.01,2.47-1.11,2.48-2.48v-2.56h-5.2v2.56C8.71,49.09,9.8,50.18,11.16,50.21z"/>
		<path class="st0" d="M13.85,8.18h26c0.96-0.01,1.89,0.38,2.56,1.07c0.76,0.8,1.3,1.79,1.56,2.86l1.51,5.43h-1.28l-1.51-5.09
			c-0.2-0.86-0.62-1.65-1.2-2.3c-0.43-0.45-1.02-0.7-1.64-0.7h-26c-0.65-0.01-1.27,0.25-1.73,0.72c-0.57,0.63-0.96,1.4-1.11,2.24
			L8.63,23.33l0,0c-0.03,0.13-0.09,0.24-0.18,0.33l-6.33,6.12v10.02c0.01,2.25,1.84,4.07,4.09,4.08h13.07l0.06,1.28H6.21
			c-2.96-0.01-5.36-2.41-5.37-5.37V29.57c0-0.19,0.09-0.37,0.23-0.5l6.39-6.15l2.29-10.77c0.21-1.08,0.71-2.07,1.46-2.88
			C11.9,8.57,12.86,8.17,13.85,8.18z"/>
		<path class="st0" d="M16.3,11.87h21.64c0.66-0.01,1.29,0.26,1.75,0.73c0.48,0.52,0.82,1.16,0.96,1.85l0.75,3.09h-1.28l-0.66-2.8
			c-0.08-0.48-0.29-0.92-0.61-1.28c-0.22-0.23-0.53-0.36-0.84-0.36H16.3c-0.32,0.01-0.63,0.14-0.86,0.36
			c-0.32,0.36-0.52,0.8-0.6,1.28l-1.69,7.81l15.34,0.06l-0.63,1.28l-16.32-0.06l2.03-9.37c0.14-0.7,0.47-1.34,0.96-1.85
			c0.46-0.48,1.1-0.75,1.76-0.74H16.3z"/>
		<path class="st0" d="M16.3,11.86h21.64c0.31,0,0.62,0.05,0.91,0.15c0.3,0.13,0.57,0.32,0.81,0.55c0.23,0.24,0.43,0.52,0.59,0.82
			c0.17,0.33,0.3,0.68,0.38,1.05l0.78,3.12l0,0l-0.77-3.09c-0.09-0.36-0.22-0.71-0.38-1.04c-0.15-0.3-0.34-0.57-0.58-0.81
			c-0.24-0.23-0.52-0.41-0.83-0.54c-0.3-0.12-0.62-0.18-0.95-0.18H16.3c-0.32,0-0.64,0.06-0.95,0.18c-0.3,0.13-0.57,0.32-0.81,0.55
			c-0.23,0.24-0.43,0.51-0.58,0.81c-0.16,0.33-0.29,0.68-0.37,1.04l-2.02,9.35l16.24,0.08l0,0l-16.28-0.04l2.03-9.39
			c0.07-0.36,0.19-0.72,0.36-1.05c0.16-0.3,0.37-0.58,0.61-0.82c0.22-0.25,0.49-0.45,0.79-0.59c0.31-0.12,0.63-0.18,0.96-0.18V11.86
			z M37.94,13.14H16.3c-0.17,0.02-0.33,0.07-0.47,0.15c-0.15,0.06-0.28,0.15-0.4,0.27c-0.14,0.15-0.26,0.32-0.36,0.51
			c-0.11,0.22-0.18,0.46-0.23,0.7l-1.66,7.76l15.25,0.08l0,0l-15.34-0.06l1.7-7.84c0.05-0.24,0.13-0.48,0.24-0.7
			c0.09-0.19,0.21-0.37,0.36-0.52c0.13-0.09,0.28-0.16,0.43-0.19c0.14-0.07,0.3-0.1,0.46-0.1h21.65c0.16,0,0.32,0.04,0.46,0.1
			c0.15,0.06,0.29,0.15,0.4,0.27c0.15,0.15,0.28,0.33,0.37,0.52c0.11,0.23,0.19,0.47,0.26,0.72l0.7,2.75l0,0l-0.66-2.79
			c-0.06-0.25-0.14-0.49-0.26-0.72c-0.09-0.19-0.21-0.36-0.36-0.51c-0.11-0.11-0.24-0.2-0.38-0.27c-0.14-0.06-0.29-0.09-0.45-0.09
			L37.94,13.14z"/>
		<path class="st0" d="M17.98,30.4h1.28l1.21,1.28h-2.56c-0.8,0-1.44,0.65-1.44,1.44v5.63c0.03,0.8,0.7,1.42,1.49,1.39
			c0.01,0,0.01,0,0.02,0h1.1l0.06,1.28h-1.16c-0.73,0-1.42-0.29-1.93-0.81c-0.52-0.51-0.81-1.2-0.81-1.92v-5.63
			c0.01-1.51,1.23-2.73,2.74-2.74V30.4z"/>
		<path class="st1" d="M7.08,30.1h2.25c1.73,0,3.13,1.4,3.13,3.13l0,0v0.87H6.07v-2.9c0-0.57,0.46-1.04,1.04-1.05L7.08,30.1z"/>
		<path class="st2" d="M7.08,29.46h2.25c2.07,0.03,3.74,1.7,3.77,3.77v1.52H5.43V31.2c-0.01-0.93,0.74-1.68,1.66-1.69
			c0,0,0.01,0,0.01,0L7.08,29.46z M9.33,30.74H7.08c-0.11,0-0.21,0.04-0.28,0.12c-0.07,0.08-0.11,0.18-0.12,0.28v2.31h5.11v-0.23
			c-0.01-1.37-1.11-2.47-2.48-2.48L9.33,30.74z"/>
		<path class="st1" d="M5.97,37.45h5.61c0.87,0,1.57,0.7,1.57,1.57v1.68H5.97V37.45z"/>
		<path class="st2" d="M5.97,36.81h5.61c1.22,0.01,2.21,0.99,2.21,2.21v2.31H5.33v-4.53H5.97z M11.58,38.09H6.62v1.96h5.88v-1.04
			C12.5,38.5,12.09,38.09,11.58,38.09z"/>
		<path class="st0" d="M6.49,19.69H3.31c-0.85-0.01-1.54,0.67-1.55,1.52c0,0.01,0,0.02,0,0.03c0,0.31,0.12,0.61,0.35,0.83
			c0.22,0.23,0.52,0.35,0.83,0.35h3.94V20.1c0-0.11-0.05-0.21-0.13-0.28C6.69,19.74,6.59,19.69,6.49,19.69z M3.31,18.41h3.18
			c0.45,0,0.88,0.18,1.2,0.5c0.3,0.32,0.47,0.75,0.46,1.19v3.61h-5.2c-1.36-0.01-2.45-1.11-2.47-2.47
			C0.49,19.68,1.75,18.42,3.31,18.41z"/>
		<path class="st0" d="M29.13,60.23H28.9c-2.09-0.03-3.77-1.74-3.77-3.84v-3.84h7.77v3.84c0,2.12-1.72,3.84-3.84,3.84H29.13z
			 M28.9,58.96h0.23c1.37-0.01,2.47-1.11,2.48-2.48v-2.56h-5.19v2.56C26.42,57.84,27.53,58.95,28.9,58.96z"/>
		<path class="st0" d="M61.59,60.21h-0.23c-2.09,0-3.8-1.68-3.84-3.77V52.6h7.77v3.84c-0.03,2.09-1.74,3.77-3.84,3.77H61.59z
			 M61.36,58.93h0.23c0.66,0,1.29-0.26,1.75-0.73c0.47-0.46,0.73-1.09,0.73-1.75v-2.56h-5.19v2.56C58.89,57.82,60,58.92,61.36,58.93
			z"/>
		<path class="st0" d="M31.58,16.93h26c0.96-0.01,1.89,0.38,2.56,1.07c0.75,0.81,1.27,1.79,1.53,2.86l2.99,10.73l6.61,6.21
			c0.13,0.12,0.2,0.29,0.2,0.46l0,0V48.5c-0.01,2.97-2.42,5.36-5.38,5.37H23.9c-2.97,0-5.37-2.4-5.37-5.37c0,0,0,0,0,0V38.27
			c0-0.19,0.08-0.37,0.23-0.49l6.39-6.16l2.34-10.65c0.2-1.1,0.7-2.12,1.46-2.94C29.64,17.31,30.59,16.92,31.58,16.93z M57.58,18.2
			h-26c-0.64,0-1.25,0.27-1.69,0.74c-0.58,0.62-0.97,1.39-1.13,2.22l-2.38,10.91l0,0c-0.03,0.12-0.09,0.23-0.18,0.32l-6.39,6.15
			v10.01c0.01,2.26,1.83,4.08,4.09,4.09h42.2c2.26-0.01,4.08-1.83,4.09-4.09V38.55l-6.55-6.07c-0.08-0.08-0.14-0.18-0.18-0.29
			l-3.04-10.91c-0.21-0.85-0.62-1.64-1.2-2.3c-0.43-0.45-1.03-0.7-1.65-0.69V18.2z"/>
		<path class="st1" d="M34.05,21.27h21.62c1.15,0,1.83,0.97,2.08,2.08l2.07,8.73L30.1,31.95l1.85-8.59
			C32.2,22.23,32.9,21.27,34.05,21.27z"/>
		<path class="st0" d="M34.05,20.63h21.62c0.66-0.01,1.3,0.25,1.75,0.73c0.49,0.51,0.82,1.15,0.96,1.84l2.26,9.53l-31.35-0.14
			l2.03-9.37c0.14-0.69,0.47-1.34,0.95-1.85C32.74,20.89,33.38,20.63,34.05,20.63z M55.67,21.91H34.05c-0.32,0-0.63,0.13-0.86,0.36
			c-0.32,0.36-0.53,0.8-0.6,1.28l-1.7,7.81l28.13,0.13l-1.89-7.97c-0.08-0.48-0.29-0.92-0.61-1.28c-0.22-0.23-0.53-0.36-0.84-0.36
			V21.91z"/>
		<path class="st0" d="M35.71,39.16h18.87c1.5-0.01,2.72,1.2,2.72,2.7c0,0.01,0,0.02,0,0.03v5.63c0.01,1.5-1.2,2.72-2.7,2.72
			c-0.01,0-0.02,0-0.03,0H35.71c-0.74,0.01-1.45-0.27-1.98-0.79c-0.52-0.51-0.81-1.21-0.81-1.93v-5.63c0-0.73,0.29-1.42,0.81-1.93
			c0.52-0.51,1.21-0.79,1.93-0.79H35.71z M54.59,40.44H35.71c-0.8,0-1.44,0.65-1.44,1.44v5.63c0,0.8,0.65,1.44,1.44,1.44h18.87
			c0.8-0.01,1.44-0.65,1.44-1.44v-5.63C56.02,41.09,55.38,40.45,54.59,40.44z"/>
		<path class="st3" d="M24.78,38.87h2.24c1.73,0,3.13,1.39,3.13,3.12v0.88h-6.39v-2.98C23.77,39.33,24.22,38.88,24.78,38.87z"/>
		<path class="st0" d="M24.78,38.2h2.24c1,0.01,1.96,0.41,2.67,1.11c0.7,0.71,1.1,1.66,1.1,2.66v1.52h-7.67v-3.61
			c0-0.44,0.18-0.87,0.49-1.19c0.32-0.32,0.75-0.5,1.2-0.5H24.78z M27.02,39.48h-2.24c-0.11,0-0.21,0.04-0.28,0.12
			c-0.08,0.07-0.12,0.17-0.13,0.28v2.31h5.11v-0.23c-0.04-1.36-1.14-2.45-2.49-2.48L27.02,39.48z"/>
		<path class="st3" d="M23.72,46.21h5.6c0.87,0,1.57,0.7,1.57,1.57c0,0.01,0,0.03,0,0.04v1.68h-7.17V46.21z"/>
		<path class="st0" d="M23.72,45.55h5.6c0.59,0,1.15,0.24,1.56,0.65c0.43,0.42,0.67,1.01,0.65,1.61v2.33h-8.46v-4.59H23.72z
			 M29.32,46.83h-4.96v1.96h5.88v-0.97c0-0.51-0.41-0.92-0.92-0.92L29.32,46.83z"/>
		<path class="st3" d="M65.42,38.98h-2.28c-1.73,0.01-3.13,1.41-3.13,3.13v0.87h6.39v-2.95c0-0.58-0.47-1.05-1.05-1.05H65.42z"/>
		<path class="st0" d="M65.42,39.63h-2.28c-0.66,0-1.29,0.26-1.75,0.73c-0.47,0.46-0.73,1.09-0.73,1.75v0.23h5.11v-2.31
			c0-0.11-0.05-0.21-0.13-0.28c-0.07-0.08-0.18-0.12-0.28-0.12H65.42z M63.18,38.36h2.24c0.45,0,0.88,0.18,1.2,0.5
			c0.31,0.32,0.49,0.74,0.49,1.19v3.61h-7.67v-1.53c0.03-2.09,1.74-3.77,3.84-3.77L63.18,38.36z"/>
		<path class="st3" d="M66.54,46.35h-5.61c-0.87-0.03-1.59,0.65-1.62,1.52c0,0.01,0,0.03,0,0.04v1.68h7.19v-3.24H66.54z"/>
		<path class="st0" d="M65.89,46.99h-4.96c-0.51,0-0.92,0.41-0.92,0.92l0,0v1.04h5.88C65.89,48.94,65.89,46.99,65.89,46.99z
			 M60.93,45.71h6.25v4.53h-8.46v-2.33c-0.01-0.59,0.23-1.15,0.65-1.56c0.41-0.42,0.97-0.65,1.56-0.65V45.71z"/>
		<path class="st0" d="M65.49,27.27h3.2c0.75,0,1.47,0.29,1.99,0.82c0.53,0.53,0.83,1.25,0.83,2.01c0.01,1.35-1.08,2.45-2.43,2.46
			c-0.01,0-0.03,0-0.04,0h-5.23v-3.61c-0.01-0.92,0.73-1.67,1.65-1.68C65.48,27.27,65.48,27.27,65.49,27.27z M68.69,28.55h-3.2
			c-0.22,0-0.4,0.18-0.4,0.4l0,0v2.33h3.95c0.31,0,0.62-0.13,0.83-0.36c0.22-0.21,0.35-0.51,0.35-0.82c0-0.41-0.16-0.8-0.45-1.09
			C69.49,28.72,69.1,28.55,68.69,28.55z"/>
		<path class="st0" d="M24.24,28.45h-3.2c-0.41,0-0.8,0.17-1.09,0.46c-0.29,0.29-0.45,0.68-0.45,1.09c0,0.31,0.12,0.6,0.35,0.82
			c0.22,0.22,0.52,0.35,0.83,0.35h3.95v-2.31C24.64,28.62,24.46,28.45,24.24,28.45z M21.05,27.17h3.2c0.93,0.01,1.68,0.76,1.69,1.69
			v3.62h-5.24c-0.65-0.01-1.27-0.27-1.74-0.72c-0.46-0.46-0.73-1.09-0.73-1.74c0-0.75,0.3-1.48,0.83-2.01
			c0.53-0.53,1.25-0.83,1.99-0.83V27.17z"/>
		<polygon class="st0" points="44.91,49.2 44.29,49.2 44.29,40.2 45.53,40.2 45.53,49.2 44.91,49.2 		"/>
		<polygon class="st0" points="48.35,49.39 47.72,49.39 47.72,40.04 48.96,40.04 48.96,49.39 48.35,49.39 		"/>
		<polygon class="st0" points="38.1,49.14 37.49,49.14 37.49,40.13 38.73,40.13 38.73,49.14 38.1,49.14 		"/>
		<polygon class="st0" points="41.54,49.31 40.92,49.31 40.92,39.98 42.16,39.98 42.16,49.31 41.54,49.31 		"/>
		<polygon class="st0" points="52,49.06 51.38,49.06 51.38,40.07 52.62,40.07 52.62,49.06 52,49.06 		"/>
	</g>
</g>
</svg>
