<?xml version="1.0" encoding="utf-8"?>
<!-- Generator: Adobe Illustrator 25.0.1, SVG Export Plug-In . SVG Version: 6.00 Build 0)  -->
<svg version="1.1" id="Layer_1" xmlns="http://www.w3.org/2000/svg" xmlns:xlink="http://www.w3.org/1999/xlink" x="0px" y="0px"
	 viewBox="0 0 72 72" style="enable-background:new 0 0 72 72;" xml:space="preserve">
<style type="text/css">
	.st0{fill:none;stroke:#4B4A4B;stroke-linecap:round;stroke-linejoin:round;}
	.st1{fill:#4182C4;}
	.st2{fill:#FFCC07;}
	.st3{fill:none;}
</style>
<g>
	<g>
		<g>
			<g>
				<path class="st0" d="M35.93,61.87H4.75 M20.7,22.08V5.1h24.92v29.08"/>
				<path class="st0" d="M26.24,61.87V18.95l-11.08,6.26"/>
				<path class="st1" d="M64.55,39.87c-3.59-2.8-8.71-2.44-11.88,0.83l-2.77,2.77l-2.77-2.77c-3.17-3.27-8.29-3.63-11.88-0.83
					c-3.72,3.01-4.29,8.45-1.29,12.17c0,0,0,0,0,0c0.18,0.23,0.38,0.44,0.58,0.65l3.06,3.06l11.23,11.23
					c0.51,0.56,1.39,0.61,1.95,0.1l0.1-0.1l11.23-11.23l3.06-3.06c3.38-3.38,3.38-8.86,0-12.24c0,0,0,0,0,0
					C64.98,40.25,64.77,40.05,64.55,39.87z"/>
				<path class="st0" d="M30.59,51.6h13.03l3.03-3.68l6.16,7.38l3.42-3.7h14.32 M15.16,61.87H1.32v-54l13.85,11.15V61.87z"/>
				<path class="st2" d="M29.7,10.64h6.92v2.77H29.7V10.64z M29.7,16.18h6.92v2.77H29.7V16.18z"/>
				<path class="st0" d="M11.8,15.9v-4.15"/>
				<path class="st3" d="M-32.57,1.64H105.9v69.23H-32.57V1.64z"/>
			</g>
		</g>
	</g>
</g>
</svg>
