<?xml version="1.0" encoding="utf-8"?>
<!-- Generator: Adobe Illustrator 25.0.1, SVG Export Plug-In . SVG Version: 6.00 Build 0)  -->
<svg version="1.1" id="Layer_1" xmlns="http://www.w3.org/2000/svg" xmlns:xlink="http://www.w3.org/1999/xlink" x="0px" y="0px"
	 viewBox="0 0 20 20" style="enable-background:new 0 0 20 20;" xml:space="preserve">
<style type="text/css">
	.st0{fill:#FFFFFF;}
	.st1{fill-rule:evenodd;clip-rule:evenodd;fill:#5DA0FB;}
	.st2{fill-rule:evenodd;clip-rule:evenodd;fill:#FFFFFF;}
</style>
<path class="st0" d="M19.5,10c0,5.2-4.2,9.4-9.4,9.4S0.6,15.2,0.6,10c0-5.2,4.2-9.4,9.4-9.4S19.5,4.8,19.5,10z"/>
<path class="st1" d="M10,0.6c-5.2,0-9.4,4.2-9.4,9.4c0,5.2,4.2,9.4,9.4,9.4s9.4-4.2,9.4-9.4C19.5,4.8,15.2,0.6,10,0.6z M14.4,15.5
	c0,0.3-0.3,0.4-0.6,0.2l-3.1-2.2c-0.2-0.1-0.4-0.1-0.6,0l-1.7,1.4C8.2,15,7.9,15,7.8,14.7l-1.2-3.8L3.6,9.8c-0.3-0.1-0.3-0.5,0-0.7
	l12.6-4.9c0.3-0.1,0.5,0.1,0.5,0.4L14.4,15.5z"/>
<path class="st2" d="M0.4,0.4v19.2h19.2V0.4H0.4z M10,19.4c-5.2,0-9.4-4.2-9.4-9.4c0-5.2,4.2-9.4,9.4-9.4s9.4,4.2,9.4,9.4
	C19.5,15.2,15.2,19.4,10,19.4z"/>
<path class="st1" d="M13.6,6.6l-6,3.7c-0.2,0.1-0.3,0.4-0.3,0.7L8,13.2c0,0.2,0.3,0.1,0.3,0L8.5,12c0-0.2,0.1-0.5,0.3-0.6l4.9-4.6
	C13.9,6.7,13.7,6.5,13.6,6.6z"/>
</svg>
