<?xml version="1.0" encoding="utf-8"?>
<!-- Generator: Adobe Illustrator 25.0.1, SVG Export Plug-In . SVG Version: 6.00 Build 0)  -->
<svg version="1.1" id="Layer_1" xmlns="http://www.w3.org/2000/svg" xmlns:xlink="http://www.w3.org/1999/xlink" x="0px" y="0px"
	 viewBox="0 0 72 72" style="enable-background:new 0 0 72 72;" xml:space="preserve">
<style type="text/css">
	.st0{fill:#4B4A4B;}
	.st1{fill-rule:evenodd;clip-rule:evenodd;fill:#FBBA10;}
	.st2{fill-rule:evenodd;clip-rule:evenodd;fill:#4182C4;}
	.st3{fill:#4182C4;}
	.st4{fill-rule:evenodd;clip-rule:evenodd;fill:#4B4A4B;}
</style>
<g id="Layer_2_1_">
	<g id="Layer_1-2">
		<path class="st0" d="M68.98,22.35v38.22c0.05,1.95-1.49,3.58-3.45,3.63c-0.03,0-0.06,0-0.09,0H17.16c-1.95,0-3.54-1.58-3.54-3.54
			c0-0.03,0-0.06,0-0.09V22.35h1.77v38.22c0,1,0.77,1.84,1.77,1.91h48.17c0.5,0,0.98-0.2,1.34-0.55c0.36-0.36,0.57-0.85,0.57-1.36
			V22.35H68.98z"/>
		<polygon class="st1" points="22.46,30.03 34.53,30.03 34.53,41.72 22.46,41.72 22.46,30.03 		"/>
		<path class="st0" d="M22.46,29.16h12.91v13.43H21.6V29.16H22.46z M33.68,30.93H23.31v9.99h10.29V30.87L33.68,30.93z"/>
		<path class="st0" d="M36.38,47.36h9.82v16.79H35.59V47.36H36.38z M44.49,49.13h-7.25v13.39h7.25V49.06V49.13z"/>
		<polygon class="st0" points="34.53,35.86 34.53,36.76 22.46,36.76 22.46,34.98 34.53,34.98 34.53,35.86 		"/>
		<polygon class="st0" points="28.48,42.23 27.59,42.23 27.59,30.15 29.36,30.15 29.36,42.23 28.48,42.23 		"/>
		<path class="st0" d="M47.76,29.23h12.91v13.41H46.86V29.23H47.76z M58.97,31h-10.4v9.99h10.37V30.95L58.97,31z"/>
		<polygon class="st0" points="59.79,35.93 59.79,36.84 47.72,36.84 47.72,35.05 59.79,35.05 59.79,35.93 		"/>
		<polygon class="st0" points="53.74,42.3 52.85,42.3 52.85,30.22 54.62,30.22 54.62,42.3 53.74,42.3 		"/>
		<path class="st2" d="M0.85,67.33L0.85,67.33c0.01-2.11,1.56-3.91,3.64-4.23l0,0c0-5.06,4.1-9.16,9.16-9.16s9.16,4.1,9.16,9.16
			c0,0.19,0,0.41,0,0.62c0.57-0.2,1.17-0.3,1.77-0.3c2.41,0.03,4.49,1.68,5.08,4.02L0.85,67.33z"/>
		<path class="st0" d="M0,67.35L0,67.35L0,67.35c0-2.27,1.49-4.26,3.66-4.9c0.27-5.52,4.97-9.78,10.49-9.51
			c5.2,0.26,9.34,4.46,9.51,9.67c0.3-0.02,0.6-0.02,0.9,0c1.33-0.06,2.64,0.33,3.73,1.1c1.12,0.89,1.88,2.14,2.18,3.54l0.23,1.04H0
			v-0.85V67.35z M2.53,65.03c-0.36,0.42-0.61,0.91-0.73,1.45h26.62c-0.76-1.43-2.24-2.32-3.86-2.32c-0.25-0.02-0.51-0.02-0.76,0
			c-0.25,0.05-0.49,0.11-0.73,0.19l-1.22,0.44l0.09-1.29c0.01-0.09,0.01-0.19,0-0.28V63c0-4.59-3.72-8.31-8.31-8.31
			S5.32,58.4,5.32,63c0,0,0,0,0,0H5.31v0.71l-0.74,0.11c-0.81,0.13-1.55,0.54-2.09,1.15L2.53,65.03z"/>
		<polygon class="st3" points="55.84,16.3 54.99,16.02 59.4,1.79 61.1,2.33 56.69,16.55 55.84,16.3 		"/>
		<polygon class="st3" points="62.26,6.84 62,7.69 54.59,5.39 55.12,3.69 62.53,5.99 62.26,6.84 		"/>
		<polygon class="st3" points="62.49,10.75 62.23,11.59 54.8,9.29 55.33,7.6 62.76,9.9 62.49,10.75 		"/>
		<path class="st0" d="M11.55,15.43H71.9v7.31H10.83v-7.31H11.55z M70.44,16.9H12.28v4.35h58.16V16.9z"/>
		<polygon class="st4" points="57.56,63.99 54.27,52.83 58.73,51.36 57.79,47.78 60.21,52.05 56.14,53.82 59.42,63.3 57.56,63.99 		
			"/>
		<path class="st0" d="M57.5,64L54.2,52.79l4.44-1.47l-0.9-3.54h0.11l2.46,4.32l-4.07,1.77l3.25,9.5l-1.96,0.71l0,0L57.5,64z
			 M54.34,52.86l3.25,11.04l1.77-0.64l-3.29-9.48l4.05-1.77l-2.16-3.79l0.83,3.1l-4.46,1.47L54.34,52.86z"/>
	</g>
</g>
</svg>
